<svg version="1.1" id="Layer_1" xmlns="http://www.w3.org/2000/svg" xmlns:xlink="http://www.w3.org/1999/xlink" x="0px" y="0px"
	 width="100%" viewBox="0 0 2256 2272" enable-background="new 0 0 2256 2272" xml:space="preserve">
<path fill="#FBFCFC" opacity="1.000000" stroke="none" 
	d="
M2.000000,600.000000 
	C2.000000,400.021912 2.000000,201.043823 2.000000,2.065724 
	C2.311389,2.043816 2.622777,2.002703 2.934166,2.002702 
	C754.518127,1.999992 1506.102051,2.000000 2257.843018,2.000000 
	C2257.843018,759.145264 2257.843018,1516.290527 2257.843018,2273.717773 
	C1506.000122,2273.717773 754.000061,2273.717773 2.000000,2273.717773 
	C2.000000,1716.208496 2.000000,1158.604248 2.000000,600.000000 
M966.999817,1106.467163 
	C997.665039,1106.463745 1028.331421,1106.632324 1058.995117,1106.404541 
	C1085.207886,1106.209961 1105.108398,1087.180054 1105.329224,1061.287354 
	C1105.735840,1013.626526 1105.615601,965.958862 1105.380127,918.295715 
	C1105.246460,891.260071 1082.280396,873.365662 1059.811157,873.626404 
	C1012.486572,874.175598 965.150757,873.681396 917.820251,873.836609 
	C892.061768,873.921082 872.788818,892.755249 872.612732,918.567505 
	C872.289917,965.896301 872.313721,1013.230042 872.599792,1060.559326 
	C872.762268,1087.446045 892.000366,1106.153687 919.002319,1106.429932 
	C934.333313,1106.586914 949.667175,1106.464111 966.999817,1106.467163 
M2006.559204,896.004272 
	C2002.253540,903.755371 2000.464600,912.065552 2000.479248,920.924622 
	C2000.554810,966.895752 2000.410156,1012.867310 2000.551880,1058.838135 
	C2000.640625,1087.615234 2019.467041,1106.363281 2048.236328,1106.432251 
	C2093.874268,1106.541626 2139.512695,1106.535522 2185.150635,1106.435913 
	C2214.187500,1106.372559 2233.353516,1087.236328 2233.427979,1058.177734 
	C2233.545410,1012.540039 2233.058105,966.896851 2233.608154,921.265442 
	C2233.939941,893.725037 2212.104004,873.002808 2185.820312,873.531433 
	C2139.867676,874.455444 2093.882080,873.960022 2047.912231,873.700562 
	C2030.452026,873.601990 2017.004028,880.246460 2006.559204,896.004272 
M1201.397461,1106.459595 
	C1247.347168,1106.460571 1293.296875,1106.536377 1339.246460,1106.435059 
	C1367.793457,1106.372070 1387.299194,1087.302612 1387.408447,1059.104126 
	C1387.587769,1012.822266 1387.239868,966.537842 1387.538086,920.257202 
	C1387.715210,892.769897 1365.317383,873.187866 1340.848633,873.576111 
	C1294.244751,874.315674 1247.612061,874.331604 1201.009155,873.559631 
	C1177.928467,873.177246 1154.259277,891.432251 1154.438354,920.304382 
	C1154.725464,966.585205 1154.400635,1012.869385 1154.557373,1059.151489 
	C1154.650513,1086.678101 1171.826416,1104.528198 1201.397461,1106.459595 
M1651.837158,882.970642 
	C1643.345703,876.346802 1633.705078,873.696838 1622.963257,873.729553 
	C1575.991333,873.872742 1529.018311,873.687256 1482.046387,873.832642 
	C1455.772583,873.913940 1436.721924,892.834839 1436.585693,919.302429 
	C1436.343872,966.273560 1436.336548,1013.247925 1436.585815,1060.218994 
	C1436.728882,1087.181274 1455.825562,1106.277954 1482.622559,1106.398071 
	C1529.260864,1106.607056 1575.901367,1106.588867 1622.539917,1106.409302 
	C1649.733276,1106.304688 1669.254761,1086.946899 1669.390503,1059.783081 
	C1669.623657,1013.145020 1669.467285,966.504883 1669.448242,919.865601 
	C1669.442383,905.379272 1664.154419,893.275818 1651.837158,882.970642 
M1924.628540,1102.353394 
	C1941.997314,1093.619263 1951.325562,1079.601318 1951.397583,1060.100464 
	C1951.571045,1013.135315 1951.441650,966.169006 1951.455811,919.203186 
	C1951.463989,891.867493 1928.685425,873.351257 1905.767700,873.623840 
	C1858.475464,874.186340 1811.171875,873.761536 1763.873047,873.848450 
	C1759.918213,873.855713 1755.836304,874.170044 1752.032349,875.172485 
	C1731.428589,880.602356 1718.604736,897.878052 1718.549072,920.464661 
	C1718.435669,966.431030 1718.429321,1012.397949 1718.543823,1058.364258 
	C1718.617188,1087.774780 1737.316406,1106.384155 1766.754150,1106.440063 
	C1812.054443,1106.526245 1857.355835,1106.611450 1902.654175,1106.304688 
	C1909.493408,1106.258423 1916.318359,1104.090942 1924.628540,1102.353394 
M518.712402,1382.244385 
	C534.519897,1372.371582 541.609070,1358.037598 541.526306,1339.495483 
	C541.324097,1294.192505 541.017273,1248.882202 541.621216,1203.586426 
	C541.998047,1175.321899 519.684204,1155.056641 494.143219,1155.540771 
	C447.856659,1156.417969 401.531555,1156.360352 355.242584,1155.550049 
	C331.816864,1155.140137 308.299591,1173.529419 308.450104,1202.104248 
	C308.693970,1248.406128 308.401947,1294.710571 308.555786,1341.013306 
	C308.651184,1369.720337 327.543701,1388.371948 356.409760,1388.435303 
	C402.046478,1388.535522 447.683685,1388.415283 493.320435,1388.503906 
	C501.830658,1388.520386 509.857697,1386.989502 518.712402,1382.244385 
M596.559265,1178.004395 
	C592.253357,1185.755493 590.464722,1194.065796 590.479309,1202.924805 
	C590.554932,1248.895874 590.410278,1294.867676 590.551941,1340.838379 
	C590.640625,1369.615601 609.466492,1388.363281 638.236694,1388.432373 
	C683.874512,1388.541870 729.513000,1388.535645 775.150818,1388.436035 
	C804.187805,1388.372681 823.353577,1369.236450 823.428223,1340.177490 
	C823.545471,1294.539795 823.058350,1248.896484 823.608337,1203.265137 
	C823.940247,1175.725708 802.104553,1155.002808 775.819946,1155.531372 
	C729.867371,1156.455566 683.881714,1155.960205 637.911987,1155.700684 
	C620.451782,1155.602173 607.003784,1162.246338 596.559265,1178.004395 
M879.370178,1367.217407 
	C888.998962,1381.719116 902.574829,1388.526245 919.919434,1388.491699 
	C965.890198,1388.400513 1011.861633,1388.560791 1057.832153,1388.424194 
	C1086.146851,1388.339966 1105.338013,1369.010010 1105.422729,1340.495850 
	C1105.558105,1294.858398 1104.998779,1249.213867 1105.632690,1203.584839 
	C1106.010498,1176.383545 1084.732910,1154.881714 1057.138916,1155.507202 
	C1011.524475,1156.541016 965.854431,1156.491699 920.237610,1155.511475 
	C894.814209,1154.965088 872.058960,1174.693726 872.377136,1203.112305 
	C872.888062,1248.744385 872.562927,1294.386597 872.471619,1340.024170 
	C872.453247,1349.210938 874.033569,1357.899658 879.370178,1367.217407 
M1334.831787,1388.466919 
	C1337.165039,1388.462158 1339.499634,1388.505615 1341.831421,1388.445312 
	C1367.392334,1387.783936 1387.096436,1368.894165 1387.322632,1343.435547 
	C1387.746094,1295.773315 1387.731079,1248.102173 1387.333252,1200.439453 
	C1387.117310,1174.571899 1367.821045,1155.934326 1341.953491,1155.841919 
	C1294.621338,1155.672852 1247.288086,1155.762329 1199.955444,1155.847290 
	C1195.996704,1155.854370 1191.911011,1156.152832 1188.102661,1157.149902 
	C1167.482300,1162.548218 1154.606934,1179.851685 1154.549683,1202.434204 
	C1154.433960,1248.099976 1155.053955,1293.775024 1154.322144,1339.429443 
	C1153.835693,1369.772827 1176.963135,1389.294800 1203.882568,1388.713379 
	C1246.862061,1387.784912 1289.876099,1388.466431 1334.831787,1388.466919 
M1622.652832,1155.790405 
	C1576.036987,1155.790405 1529.413086,1156.301514 1482.808716,1155.569458 
	C1460.280151,1155.215698 1436.447998,1172.940674 1436.495972,1201.505615 
	C1436.574829,1248.454224 1436.327637,1295.404175 1436.591064,1342.351440 
	C1436.742188,1369.266968 1455.881348,1388.285645 1482.718262,1388.401001 
	C1529.333130,1388.601562 1575.950073,1388.590210 1622.565063,1388.408691 
	C1649.734253,1388.302856 1669.253784,1368.940796 1669.390137,1341.795166 
	C1669.624268,1295.180542 1669.344238,1248.563599 1669.495850,1201.948242 
	C1669.591553,1172.521118 1645.101318,1154.463501 1622.652832,1155.790405 
M1900.764648,1388.466064 
	C1928.170288,1390.777588 1952.476440,1369.643311 1951.729126,1337.603638 
	C1950.673584,1292.347046 1951.336304,1247.046997 1951.500244,1201.766479 
	C1951.599731,1174.269287 1928.940186,1155.277954 1905.361938,1155.601562 
	C1858.424805,1156.245605 1811.465576,1156.267090 1764.529663,1155.582642 
	C1742.295898,1155.258423 1718.388306,1172.947388 1718.477661,1201.780029 
	C1718.622070,1248.392578 1718.428711,1295.006226 1718.630127,1341.618408 
	C1718.654175,1347.182861 1719.514771,1352.983765 1721.254150,1358.257324 
	C1727.378052,1376.823853 1744.183594,1388.357178 1764.979614,1388.418335 
	C1809.594482,1388.549805 1854.210083,1388.463867 1900.764648,1388.466064 
M2065.010498,1155.785156 
	C2058.677490,1155.787354 2052.343750,1155.732178 2046.011475,1155.801880 
	C2019.726807,1156.091431 2000.718506,1174.853516 2000.583130,1201.376221 
	C2000.346802,1247.706299 2000.429932,1294.038696 2000.544189,1340.369629 
	C2000.616821,1369.804688 2019.316406,1388.385986 2048.812012,1388.440674 
	C2094.143311,1388.524658 2139.475098,1388.527588 2184.806152,1388.440552 
	C2214.453857,1388.383667 2233.383057,1369.320801 2233.438477,1339.477661 
	C2233.522217,1294.479736 2232.871826,1249.471191 2233.675537,1204.487427 
	C2234.180176,1176.237183 2212.554443,1154.735840 2184.993408,1155.507568 
	C2145.692627,1156.607910 2106.337891,1155.786011 2065.010498,1155.785156 
M541.463196,1491.298218 
	C541.462219,1489.633423 541.376953,1487.963867 541.473022,1486.304688 
	C543.077942,1458.585571 520.874084,1436.841309 492.900330,1437.496582 
	C446.977936,1438.572144 401.002563,1438.342163 355.068420,1437.557617 
	C331.901306,1437.161987 308.272095,1455.454346 308.442200,1484.242188 
	C308.715607,1530.520996 308.398193,1576.802979 308.557312,1623.083008 
	C308.655884,1651.746094 327.572540,1670.373535 356.442322,1670.435791 
	C402.056702,1670.534180 447.671509,1670.480713 493.286041,1670.427124 
	C496.929138,1670.422852 500.644348,1670.288208 504.202637,1669.587402 
	C526.658020,1665.165161 541.334351,1646.978516 541.415833,1623.080688 
	C541.563477,1579.797241 541.461182,1536.512939 541.463196,1491.298218 
M590.510986,1606.943115 
	C590.515259,1612.942993 590.397827,1618.945923 590.544800,1624.942383 
	C591.190308,1651.286499 610.047668,1670.264038 636.386963,1670.391113 
	C683.384521,1670.618164 730.384888,1670.632690 777.382263,1670.384888 
	C803.461914,1670.247437 823.154419,1650.908325 823.348206,1624.898926 
	C823.700806,1577.569458 823.489014,1530.235718 823.434448,1482.903687 
	C823.403320,1455.851929 800.687256,1437.295776 777.417480,1437.605713 
	C730.427185,1438.231445 683.422546,1437.754272 636.424072,1437.853638 
	C632.140564,1437.862793 627.710144,1438.206421 623.601501,1439.325562 
	C603.340454,1444.845215 590.637878,1461.925415 590.557556,1483.964478 
	C590.410522,1524.296143 590.512695,1564.628784 590.510986,1606.943115 
M1058.652832,1437.790405 
	C1012.037048,1437.790283 965.413269,1438.301514 918.809021,1437.569458 
	C896.280334,1437.215576 872.447998,1454.940552 872.495972,1483.505371 
	C872.574768,1530.453979 872.327454,1577.404053 872.590942,1624.351318 
	C872.742004,1651.266724 891.881409,1670.285645 918.718079,1670.401123 
	C965.333069,1670.601685 1011.949951,1670.590088 1058.565063,1670.408569 
	C1085.734375,1670.302734 1105.253906,1650.940918 1105.390259,1623.795288 
	C1105.624390,1577.180664 1105.344116,1530.563721 1105.495728,1483.948364 
	C1105.591553,1454.520630 1081.100708,1436.463501 1058.652832,1437.790405 
M1387.463379,1497.117676 
	C1387.461670,1493.117798 1387.325317,1489.112671 1387.480103,1485.118896 
	C1388.534790,1457.906128 1366.292725,1436.973022 1339.628662,1437.525146 
	C1293.649536,1438.477173 1247.624390,1438.416870 1201.642456,1437.532349 
	C1177.443359,1437.067017 1154.147827,1456.015015 1154.404663,1484.751953 
	C1154.815674,1530.747192 1154.414185,1576.748901 1154.550293,1622.747437 
	C1154.635498,1651.578613 1173.433960,1670.361206 1202.191528,1670.431641 
	C1247.856689,1670.543579 1293.522461,1670.479736 1339.187988,1670.428955 
	C1342.837158,1670.424927 1346.555542,1670.310181 1350.123413,1669.627930 
	C1372.457642,1665.357056 1387.329590,1646.945190 1387.416138,1623.081299 
	C1387.565918,1581.749512 1387.461182,1540.416748 1387.463379,1497.117676 
M1669.463135,1507.015503 
	C1669.460693,1499.349121 1669.342285,1491.680664 1669.476562,1484.016724 
	C1669.951050,1456.937012 1647.501831,1437.136597 1622.529907,1437.563354 
	C1576.212158,1438.354858 1529.859619,1438.404175 1483.544556,1437.535767 
	C1459.518311,1437.085205 1436.129028,1455.949707 1436.399658,1484.848511 
	C1436.830566,1530.842529 1436.409912,1576.843750 1436.552124,1622.841309 
	C1436.641113,1651.642090 1455.465698,1670.365601 1484.284058,1670.433105 
	C1529.948364,1670.540161 1575.613281,1670.480469 1621.277954,1670.426880 
	C1624.924927,1670.422607 1628.644165,1670.287476 1632.206421,1669.586060 
	C1654.361450,1665.224365 1669.257935,1647.220581 1669.394165,1624.005127 
	C1669.619019,1585.674805 1669.460327,1547.342163 1669.463135,1507.015503 
M1775.080078,1670.467163 
	C1818.079834,1670.464966 1861.079834,1670.571899 1904.079102,1670.420898 
	C1931.493774,1670.324585 1951.215332,1651.240601 1951.375977,1624.201050 
	C1951.655151,1577.203125 1951.440552,1530.202271 1951.456177,1483.202637 
	C1951.465210,1455.887695 1928.697876,1437.343018 1905.715332,1437.621094 
	C1858.389282,1438.193604 1811.051392,1437.760620 1763.718628,1437.850952 
	C1759.763672,1437.858521 1755.680664,1438.207153 1751.877686,1439.222900 
	C1731.611328,1444.635376 1718.682129,1461.769653 1718.562012,1483.671631 
	C1718.384521,1516.003784 1718.512085,1548.337524 1718.511108,1580.670654 
	C1718.510742,1595.003906 1718.377686,1609.338623 1718.544434,1623.669922 
	C1718.865723,1651.278687 1737.667358,1670.087036 1765.115479,1670.453857 
	C1767.781738,1670.489380 1770.448730,1670.464233 1775.080078,1670.467163 
M2233.463135,1555.000122 
	C2233.461426,1531.667969 2233.082520,1508.328003 2233.555176,1485.005493 
	C2234.121582,1457.047729 2211.488525,1437.124146 2186.517578,1437.558960 
	C2140.200439,1438.365479 2093.847900,1438.402588 2047.532959,1437.536133 
	C2023.523438,1437.087036 2000.126709,1455.944946 2000.399170,1484.859619 
	C2000.832275,1530.853271 2000.409424,1576.854370 2000.552368,1622.851685 
	C2000.641724,1651.649902 2019.468506,1670.366089 2048.293701,1670.433228 
	C2093.958008,1670.539673 2139.622803,1670.540283 2185.287109,1670.433960 
	C2214.270264,1670.366455 2233.301758,1651.157227 2233.439697,1621.996948 
	C2233.542236,1600.331787 2233.461914,1578.665894 2233.463135,1555.000122 
M342.791656,1720.836914 
	C319.756287,1728.359009 308.567719,1743.511108 308.532684,1767.631104 
	C308.466431,1813.256470 308.422394,1858.882324 308.546234,1904.507446 
	C308.625946,1933.875122 327.348816,1952.388550 356.883850,1952.441650 
	C402.176147,1952.522949 447.468842,1952.526123 492.761139,1952.441406 
	C522.388062,1952.385986 541.379517,1933.329956 541.437256,1903.589478 
	C541.525146,1858.297119 540.983093,1812.997681 541.636963,1767.714600 
	C542.034546,1740.178101 520.520142,1718.905884 493.289581,1719.511108 
	C447.686646,1720.524780 402.044800,1719.772827 356.419342,1719.814209 
	C352.433594,1719.817871 348.448212,1720.194824 342.791656,1720.836914 
M750.998779,1719.785034 
	C713.333923,1719.786133 675.668945,1719.743896 638.004333,1719.844116 
	C633.377930,1719.856323 628.595276,1720.016113 624.155212,1721.158203 
	C603.519470,1726.466431 590.608521,1743.829712 590.550598,1766.382690 
	C590.432556,1812.380127 590.428589,1858.378418 590.544067,1904.375854 
	C590.618042,1933.809082 609.317932,1952.386108 638.818115,1952.440674 
	C684.149109,1952.524536 729.480408,1952.479492 774.811523,1952.432861 
	C778.462952,1952.429077 782.182739,1952.361816 785.753906,1951.696655 
	C808.242065,1947.508545 823.317932,1929.213989 823.405762,1905.472046 
	C823.577148,1859.141724 823.457764,1812.810059 823.451172,1766.479004 
	C823.450928,1764.813599 823.446106,1763.141846 823.312500,1761.483643 
	C821.398254,1737.732422 802.852600,1720.252808 778.996155,1719.825195 
	C770.332581,1719.669922 761.664124,1719.790527 750.998779,1719.785034 
M969.000061,1719.785034 
	C952.334167,1719.786621 935.638062,1720.424561 919.009705,1719.635742 
	C895.921509,1718.540527 872.241760,1737.448120 872.433350,1766.384888 
	C872.739990,1812.713989 872.383179,1859.046997 872.563843,1905.377319 
	C872.673645,1933.540283 891.632141,1952.346558 919.819763,1952.425537 
	C965.817139,1952.554321 1011.815430,1952.559937 1057.812744,1952.424316 
	C1086.154419,1952.340820 1105.339233,1933.014893 1105.423096,1904.471069 
	C1105.557129,1858.807007 1105.030640,1813.136841 1105.617676,1767.479980 
	C1105.977417,1739.495361 1083.863403,1718.707275 1057.988525,1719.567993 
	C1029.022095,1720.531494 999.998718,1719.786499 969.000061,1719.785034 
M1387.463379,1872.998901 
	C1387.461670,1837.667847 1387.086304,1802.331421 1387.577026,1767.007324 
	C1387.965576,1739.048462 1365.489014,1719.128296 1340.520630,1719.559082 
	C1293.870850,1720.363892 1247.190063,1720.269775 1200.536499,1719.582031 
	C1178.285767,1719.254150 1154.371704,1736.969971 1154.472534,1765.852539 
	C1154.635132,1812.515869 1154.358643,1859.180664 1154.575073,1905.843506 
	C1154.702881,1933.387329 1173.765259,1952.318848 1201.284912,1952.415039 
	C1247.614868,1952.576904 1293.946045,1952.577515 1340.276001,1952.415771 
	C1367.955933,1952.319092 1387.140503,1932.854248 1387.440430,1904.996094 
	C1387.548096,1894.997803 1387.461304,1884.997437 1387.463379,1872.998901 
M1439.403809,1749.007812 
	C1438.441528,1754.548096 1436.670776,1760.084595 1436.644165,1765.629395 
	C1436.420288,1812.261719 1436.375244,1858.896240 1436.567749,1905.528809 
	C1436.683716,1933.611328 1455.699707,1952.351685 1483.921509,1952.427246 
	C1529.888428,1952.550415 1575.856079,1952.560303 1621.822998,1952.424194 
	C1650.138062,1952.340454 1669.337036,1933.014038 1669.422363,1904.511108 
	C1669.558716,1858.877319 1668.995972,1813.236450 1669.633423,1767.611206 
	C1670.014404,1740.336914 1648.685791,1718.886963 1621.171509,1719.507935 
	C1575.560669,1720.537231 1529.908691,1719.952637 1484.275757,1719.714111 
	C1463.365845,1719.604858 1448.631104,1728.565430 1439.403809,1749.007812 
M1799.000000,1952.467163 
	C1834.331665,1952.463867 1869.664429,1952.627686 1904.994629,1952.401733 
	C1931.207520,1952.234131 1951.108276,1933.180176 1951.329102,1907.287720 
	C1951.735718,1859.626831 1951.615234,1811.959229 1951.380127,1764.296143 
	C1951.246826,1737.264160 1928.283936,1719.365967 1905.811523,1719.626587 
	C1858.486816,1720.175537 1811.151123,1719.681519 1763.820557,1719.836548 
	C1738.062500,1719.921021 1718.786133,1738.755493 1718.613159,1764.567261 
	C1718.293701,1812.229370 1718.242188,1859.897705 1718.644653,1907.558594 
	C1718.862061,1933.312622 1738.219604,1951.967651 1764.002441,1952.421997 
	C1774.998535,1952.615723 1786.000732,1952.462524 1799.000000,1952.467163 
M2233.463135,1795.003662 
	C2233.461426,1785.670776 2233.218750,1776.330566 2233.503418,1767.006348 
	C2234.356689,1739.050049 2211.487061,1719.124268 2186.518799,1719.558960 
	C2140.201416,1720.365479 2093.848877,1720.402710 2047.533936,1719.536011 
	C2023.523804,1719.086914 2000.126831,1737.944580 2000.399170,1766.858765 
	C2000.832031,1812.852539 2000.409546,1858.853760 2000.552368,1904.851074 
	C2000.641846,1933.649536 2019.468384,1952.366089 2048.293213,1952.433228 
	C2093.957520,1952.539551 2139.622314,1952.480591 2185.286865,1952.427002 
	C2188.933838,1952.422729 2192.652832,1952.286255 2196.214844,1951.584106 
	C2218.369629,1947.218140 2233.250000,1929.215576 2233.395020,1905.996704 
	C2233.621826,1869.666382 2233.460205,1833.333862 2233.463135,1795.003662 
M367.040131,873.784973 
	C359.388550,874.022034 351.555206,873.288208 344.119873,874.680359 
	C322.829773,878.666138 308.614685,897.187744 308.552063,920.347900 
	C308.427734,966.345886 308.430023,1012.344727 308.543549,1058.342773 
	C308.616211,1087.786987 327.308441,1106.385132 356.785950,1106.440430 
	C402.117554,1106.525513 447.449524,1106.526611 492.781128,1106.440796 
	C522.437378,1106.384521 541.382263,1087.327637 541.438416,1057.501831 
	C541.523071,1012.503540 540.868591,967.494324 541.676086,922.510376 
	C542.184326,894.200562 520.515991,872.779846 493.016052,873.504272 
	C451.712860,874.592285 410.359772,873.785828 367.040131,873.784973 
M379.003357,542.467163 
	C417.668243,542.463806 456.334106,542.623596 494.997711,542.400208 
	C521.209778,542.248779 541.108521,523.178345 541.329346,497.284546 
	C541.735657,449.623566 541.616211,401.955780 541.379883,354.292542 
	C541.245850,327.259369 518.279785,309.365143 495.807770,309.626221 
	C448.483032,310.175964 401.147095,309.681274 353.816467,309.836761 
	C328.058777,309.921356 309.181763,328.759277 308.542358,354.571381 
	C308.393829,360.567535 308.511536,366.570282 308.511475,372.570007 
	C308.511200,412.901459 308.453247,453.233063 308.532074,493.564362 
	C308.591156,523.777954 327.042358,542.309937 357.006500,542.458679 
	C363.672699,542.491760 370.339203,542.465942 379.003357,542.467163 
M785.613647,541.792847 
	C810.721069,535.255310 823.395996,519.270691 823.438599,493.688873 
	C823.514587,448.065643 823.140564,402.439178 823.575867,356.819977 
	C823.840027,329.135986 801.586792,309.106079 776.399963,309.554718 
	C730.125305,310.378967 683.813904,310.403046 637.540771,309.536041 
	C613.520569,309.085999 590.142273,327.939331 590.403503,356.784302 
	C590.819641,402.736908 590.418762,448.696320 590.548462,494.652344 
	C590.629883,523.489380 609.390442,542.354492 638.026123,542.428955 
	C683.982178,542.548401 729.938843,542.466797 775.895203,542.445374 
	C778.554504,542.444153 781.213745,542.220947 785.613647,541.792847 
M872.510986,478.943054 
	C872.515259,484.942932 872.397766,490.945831 872.544678,496.942200 
	C873.190308,523.286255 892.047913,542.264099 918.386719,542.391235 
	C965.384277,542.618164 1012.384705,542.632751 1059.382080,542.385010 
	C1085.461914,542.247559 1105.154053,522.909363 1105.348022,496.899048 
	C1105.701050,449.569702 1105.489136,402.235779 1105.434326,354.903900 
	C1105.403076,327.847382 1082.682861,309.295868 1059.417603,309.605743 
	C1012.427246,310.231567 965.422668,309.754181 918.424194,309.853699 
	C914.140686,309.862762 909.710266,310.206360 905.601624,311.325623 
	C885.340393,316.845123 872.637878,333.925415 872.557556,355.964447 
	C872.410583,396.296112 872.512695,436.628693 872.510986,478.943054 
M1223.005615,542.467285 
	C1262.336548,542.463867 1301.668457,542.621643 1340.998169,542.400330 
	C1367.181030,542.253052 1387.108398,523.149231 1387.329224,497.272247 
	C1387.736084,449.611877 1387.618408,401.944702 1387.378906,354.282043 
	C1387.243164,327.251831 1364.274048,309.363708 1341.798218,309.625641 
	C1294.474121,310.177155 1247.138672,309.680878 1199.808594,309.836853 
	C1174.054810,309.921692 1155.173584,328.764252 1154.544678,354.578278 
	C1154.382324,361.240692 1154.511475,367.910248 1154.511353,374.576538 
	C1154.511108,414.240875 1154.452759,453.905365 1154.531982,493.569550 
	C1154.592163,523.781006 1173.043457,542.309082 1203.010620,542.459167 
	C1209.010132,542.489258 1215.009888,542.465942 1223.005615,542.467285 
M1436.510986,428.999725 
	C1436.512573,451.332123 1436.329102,473.666504 1436.563232,495.996460 
	C1436.851807,523.510132 1455.822266,542.328613 1483.439087,542.418457 
	C1529.769653,542.569153 1576.101562,542.584106 1622.432007,542.412109 
	C1649.682373,542.310974 1669.247803,523.004089 1669.388062,495.851440 
	C1669.629272,449.188354 1669.320190,402.522522 1669.506470,355.858948 
	C1669.616455,328.286621 1646.944580,309.279541 1623.374023,309.601898 
	C1576.385132,310.244385 1529.381104,309.753906 1482.383667,309.854340 
	C1478.100952,309.863495 1473.671265,310.216309 1469.563477,311.338165 
	C1449.640991,316.779175 1436.785522,333.694855 1436.573486,355.003815 
	C1436.334473,379.000275 1436.513672,403.000885 1436.510986,428.999725 
M1951.463257,405.000244 
	C1951.458862,388.334320 1951.475586,371.668365 1951.445435,355.002472 
	C1951.396362,327.859741 1928.688232,309.313477 1905.517944,309.610748 
	C1858.194702,310.217987 1810.858154,309.759399 1763.527344,309.853943 
	C1759.575562,309.861816 1755.494629,310.249847 1751.696533,311.281647 
	C1731.439331,316.784882 1718.631104,333.871857 1718.560791,355.859802 
	C1718.413574,401.857056 1718.448242,447.855225 1718.536499,493.852814 
	C1718.594238,523.950562 1737.134155,542.400391 1767.294678,542.446167 
	C1812.292358,542.514465 1857.300537,541.886841 1902.284302,542.681702 
	C1929.030273,543.154358 1952.492920,522.914246 1951.637939,492.990997 
	C1950.819580,464.349121 1951.462524,435.665527 1951.463257,405.000244 
M2075.000977,542.467163 
	C2112.332520,542.463745 2149.665039,542.625305 2186.995361,542.400757 
	C2213.208496,542.243042 2233.108398,523.179688 2233.329346,497.286987 
	C2233.735840,449.626099 2233.616211,401.958435 2233.379883,354.295288 
	C2233.246094,327.253265 2210.274414,309.365601 2187.810547,309.626343 
	C2140.485840,310.175690 2093.150146,309.681458 2045.819458,309.836700 
	C2020.061646,309.921204 2000.786011,328.755981 2000.613037,354.568237 
	C2000.293701,402.230408 2000.242065,449.898712 2000.644531,497.559662 
	C2000.862061,523.313721 2020.219971,541.947998 2046.003540,542.427429 
	C2055.000244,542.594727 2064.002197,542.462585 2075.000977,542.467163 
M541.463257,697.000244 
	C541.458984,677.001099 541.477600,657.001953 541.444763,637.002869 
	C541.400269,609.857056 518.685608,591.313538 495.518280,591.610779 
	C448.195099,592.218079 400.858582,591.759521 353.527771,591.854004 
	C349.576019,591.861877 345.495026,592.249695 341.696960,593.281494 
	C321.439728,598.784607 308.630890,615.871521 308.560547,637.859375 
	C308.413422,683.856689 308.448059,729.854797 308.536407,775.852356 
	C308.594208,805.950623 327.133789,824.400452 357.294312,824.446228 
	C402.291962,824.514465 447.300018,823.886902 492.283752,824.681885 
	C519.032715,825.154602 542.570679,804.910950 541.625977,774.991333 
	C540.826904,749.684448 541.462524,724.332397 541.463257,697.000244 
M872.510986,653.061890 
	C872.512634,694.727905 872.341736,736.394897 872.578369,778.059570 
	C872.729492,804.663818 891.523987,824.186340 917.505127,824.360107 
	C965.168823,824.678955 1012.838257,824.710510 1060.501221,824.341858 
	C1085.407837,824.149292 1105.068604,804.732727 1105.307129,779.777893 
	C1105.766113,731.783142 1105.787354,683.777344 1105.295776,635.783203 
	C1105.036499,610.475220 1085.613525,591.948181 1060.296631,591.848755 
	C1012.631531,591.661621 964.964661,591.663940 917.299438,591.847839 
	C892.558350,591.943298 873.675415,610.421997 872.579285,635.091919 
	C872.342773,640.415039 872.522827,645.756714 872.510986,653.061890 
M1332.906982,591.784851 
	C1289.240967,591.786011 1245.560303,592.470154 1201.914795,591.522705 
	C1177.190796,590.985962 1153.989014,610.346985 1154.359619,639.482056 
	C1154.940308,685.140686 1154.423462,730.812317 1154.545776,776.478027 
	C1154.624512,805.888428 1173.338135,824.389832 1202.922485,824.442078 
	C1248.255005,824.522156 1293.587769,824.479614 1338.920410,824.432251 
	C1342.571899,824.428467 1346.290039,824.349243 1349.863159,823.688416 
	C1371.873901,819.617676 1387.194580,801.374634 1387.385864,778.347717 
	C1387.654419,746.017090 1387.462036,713.682556 1387.462280,681.349731 
	C1387.462402,666.349976 1387.719604,651.344177 1387.382568,636.351929 
	C1386.899536,614.862671 1373.035278,597.372986 1352.755371,592.902832 
	C1346.990234,591.632019 1340.839722,592.109314 1332.906982,591.784851 
M1558.999878,824.467163 
	C1580.665527,824.462036 1602.334839,824.711731 1623.995728,824.385498 
	C1649.467651,824.001953 1669.117432,804.786377 1669.330688,779.285950 
	C1669.729248,731.625000 1669.615967,683.957520 1669.380127,636.294373 
	C1669.246216,609.259399 1646.280029,591.365601 1623.809814,591.626404 
	C1576.485107,592.175781 1529.149780,591.761292 1481.818848,591.849426 
	C1477.862305,591.856812 1473.778320,592.183716 1469.973267,593.191833 
	C1449.353271,598.655334 1436.601074,615.906921 1436.547119,638.568237 
	C1436.438599,684.232422 1437.038208,729.905151 1436.326782,775.558533 
	C1435.858765,805.579041 1458.764160,825.758606 1486.011230,824.662537 
	C1509.638550,823.712097 1533.334229,824.466370 1558.999878,824.467163 
M1888.982666,591.784912 
	C1847.984131,591.786011 1806.985596,591.746826 1765.987305,591.843933 
	C1761.361206,591.854919 1756.578491,592.019531 1752.139038,593.163452 
	C1731.502319,598.480530 1718.607666,615.837158 1718.550293,638.400574 
	C1718.433350,684.398621 1718.427734,730.397400 1718.544434,776.395386 
	C1718.619019,805.822388 1737.323730,824.386963 1766.838379,824.441040 
	C1812.169922,824.524170 1857.501709,824.479492 1902.833374,824.432556 
	C1906.484619,824.428772 1910.204590,824.358459 1913.775269,823.691467 
	C1936.264771,819.490906 1951.319214,801.202698 1951.406250,777.449402 
	C1951.576294,731.118408 1951.457886,684.786316 1951.451050,638.454712 
	C1951.450806,636.789307 1951.444824,635.117615 1951.310303,633.459473 
	C1949.385010,609.710876 1930.836914,592.275574 1906.971313,591.815125 
	C1901.640015,591.712219 1896.305298,591.790161 1888.982666,591.784912 
M2233.459473,639.645935 
	C2234.959717,613.094238 2213.291992,590.899658 2185.236572,591.515442 
	C2139.308105,592.523499 2093.330322,592.387634 2047.395020,591.542053 
	C2023.604614,591.104065 2000.116577,609.858521 2000.396606,638.920898 
	C2000.839233,684.867371 2000.413208,730.821472 2000.550537,776.771790 
	C2000.636475,805.557129 2019.440063,824.359619 2048.136230,824.430725 
	C2094.086670,824.544617 2140.037842,824.476013 2185.988525,824.428406 
	C2189.301514,824.424988 2192.675537,824.285583 2195.917236,823.665710 
	C2218.384277,819.369690 2233.321045,801.142334 2233.408447,777.371948 
	C2233.574951,732.087769 2233.460205,686.802612 2233.459473,639.645935 
M590.510986,986.999695 
	C590.512085,1010.998596 590.391785,1034.998169 590.545654,1058.996094 
	C590.729797,1087.730103 609.538696,1106.372925 638.438354,1106.435547 
	C684.102539,1106.534424 729.767334,1106.544312 775.431519,1106.431763 
	C803.947815,1106.361572 823.316406,1087.216797 823.414795,1058.852295 
	C823.574341,1012.855103 823.134277,966.853821 823.578674,920.860352 
	C823.846252,893.157227 801.601746,873.101685 776.372925,873.553406 
	C730.056702,874.382690 683.704163,874.385559 637.388489,873.541748 
	C613.611938,873.108582 589.826111,891.860229 590.428101,921.004578 
	C590.868469,942.327759 590.512207,963.667358 590.510986,986.999695 
M615.765808,819.845642 
	C622.859680,821.383118 629.942749,824.191223 637.049255,824.252075 
	C683.680969,824.651428 730.318359,824.609802 776.952576,824.398254 
	C803.563232,824.277588 823.203613,804.919373 823.369934,778.376282 
	C823.664124,731.409912 823.377075,684.440125 823.482422,637.472168 
	C823.543213,610.396729 801.082642,591.226013 777.032593,591.586670 
	C730.407959,592.285828 683.755981,592.346863 637.134338,591.554260 
	C613.873047,591.158752 590.277771,609.484558 590.443726,638.210571 
	C590.711243,684.510986 590.527100,730.814209 590.508667,777.116211 
	C590.501221,795.674316 598.115173,809.853821 615.765808,819.845642 
M1718.511230,152.999771 
	C1718.512817,173.321930 1718.336914,193.646042 1718.559814,213.965775 
	C1718.856445,241.014526 1737.712158,259.862000 1764.669067,259.945465 
	C1811.309448,260.089874 1857.951050,260.082306 1904.591553,259.949432 
	C1932.189575,259.870789 1951.266235,241.092239 1951.395020,213.598801 
	C1951.613647,166.958923 1951.348022,120.316933 1951.494873,73.676483 
	C1951.580933,46.318645 1928.989136,27.258017 1905.227661,27.595299 
	C1858.263062,28.261936 1811.282227,27.753481 1764.308350,27.855574 
	C1760.028931,27.864874 1755.602051,28.232376 1751.498047,29.359426 
	C1731.592651,34.825760 1718.766479,51.729023 1718.574219,73.043297 
	C1718.339966,99.026855 1718.513916,125.014107 1718.511230,152.999771 
M308.511200,188.989716 
	C308.512848,197.318451 308.406036,205.648865 308.536072,213.975601 
	C308.958496,241.022491 327.714630,259.862579 354.679138,259.945679 
	C401.319855,260.089417 447.961578,260.082764 494.602356,259.949249 
	C522.194946,259.870239 541.267395,241.085114 541.395508,213.587769 
	C541.612793,166.947632 541.349304,120.305435 541.494141,73.664742 
	C541.579041,46.327370 518.997925,27.256241 495.215546,27.594782 
	C448.250763,28.263330 401.269684,27.753384 354.295624,27.855780 
	C350.016266,27.865108 345.589294,28.234245 341.485931,29.363312 
	C321.248779,34.931686 308.639130,51.986008 308.555176,74.055534 
	C308.411957,111.701065 308.512848,149.347519 308.511200,188.989716 
M615.921753,255.657898 
	C622.362854,257.098145 628.795044,259.738861 635.246521,259.786987 
	C682.854736,260.142242 730.467651,260.141815 778.077393,259.916626 
	C803.795593,259.795013 823.128784,240.897369 823.336243,215.154526 
	C823.719910,167.546768 823.611633,119.932907 823.381775,72.323166 
	C823.251038,45.254757 800.282227,27.382278 777.917908,27.632626 
	C730.645935,28.161793 683.363831,27.763247 636.086060,27.845242 
	C632.129578,27.852100 628.047424,28.121668 624.239807,29.105551 
	C603.644531,34.427395 590.615540,51.779415 590.553650,74.219505 
	C590.427002,120.165314 590.600098,166.111969 590.471863,212.057755 
	C590.419006,231.021652 597.982910,245.454544 615.921753,255.657898 
M881.169495,241.561661 
	C890.965820,254.430222 903.975647,260.130280 920.108093,260.059052 
	C966.056396,259.856140 1012.014221,259.473114 1057.952393,260.186523 
	C1084.021851,260.591400 1105.949951,240.151245 1105.609741,212.276703 
	C1105.053101,166.667252 1105.037842,121.040741 1105.614624,75.431808 
	C1105.968018,47.484051 1083.852051,27.038269 1058.022705,27.537458 
	C1011.757812,28.431589 965.453491,28.354090 919.185181,27.552572 
	C895.860046,27.148506 872.295898,45.486557 872.449219,74.128365 
	C872.697021,120.409203 872.549805,166.692383 872.486938,212.974472 
	C872.473450,222.902832 874.763733,232.076569 881.169495,241.561661 
M1231.000244,27.784994 
	C1220.672607,27.787331 1210.343140,27.676538 1200.018433,27.849360 
	C1196.055542,27.915691 1191.976196,28.139097 1188.167725,29.129103 
	C1167.888428,34.400768 1154.660400,51.584686 1154.574463,73.333870 
	C1154.390137,119.974083 1154.735229,166.616943 1154.433228,213.255936 
	C1154.249756,241.603729 1177.056396,260.592926 1201.961426,260.196655 
	C1247.924438,259.465363 1293.915771,259.463043 1339.878906,260.190094 
	C1366.052612,260.604126 1387.945068,240.115143 1387.608521,212.307983 
	C1387.056274,166.673172 1387.042114,121.021599 1387.613159,75.387253 
	C1387.960938,47.595848 1365.969360,26.850302 1339.934570,27.549862 
	C1304.313354,28.507015 1268.646973,27.786446 1231.000244,27.784994 
M1669.462891,87.117973 
	C1669.458862,82.453690 1669.452881,77.789413 1669.451294,73.125130 
	C1669.442261,45.849464 1646.670532,27.336876 1623.673584,27.618860 
	C1576.371704,28.198868 1529.057739,27.761021 1481.748779,27.850592 
	C1477.795166,27.858076 1473.714111,28.199631 1469.912109,29.211922 
	C1449.652466,34.605984 1436.683228,51.741821 1436.563965,73.605476 
	C1436.382324,106.920731 1436.511108,140.237701 1436.512207,173.553940 
	C1436.512573,187.546738 1436.247192,201.546341 1436.591309,215.530823 
	C1437.193237,239.995544 1455.523071,259.571289 1479.242310,259.799744 
	C1528.212402,260.271393 1577.190308,259.991364 1626.164673,259.904846 
	C1635.808960,259.887817 1644.434204,256.501953 1651.977173,250.514496 
	C1664.035278,240.943100 1669.496948,228.301453 1669.476685,213.021164 
	C1669.421631,171.709106 1669.460938,130.396912 1669.462891,87.117973 
M2232.104736,61.706474 
	C2224.183105,38.257957 2209.816895,27.825493 2185.127197,27.801014 
	C2139.468262,27.755743 2093.809082,27.753195 2048.150146,27.841398 
	C2043.522339,27.850336 2038.739502,27.984827 2034.295410,29.112661 
	C2013.662598,34.348930 2000.614624,51.765099 2000.553589,74.227997 
	C2000.427734,120.553200 2000.743896,166.880539 2000.430298,213.203934 
	C2000.237915,241.599991 2023.057617,260.589294 2047.938232,260.195679 
	C2093.918945,259.468231 2139.919434,260.009888 2185.911621,259.946747 
	C2189.887207,259.941284 2193.957031,259.813385 2197.822266,258.988647 
	C2218.950928,254.480240 2233.277832,236.763351 2233.385010,214.250412 
	C2233.608887,167.259399 2233.472412,120.266533 2233.407959,73.274551 
	C2233.403320,69.964767 2232.776123,66.655846 2232.104736,61.706474 
M250.184418,2216.898926 
	C256.434082,2208.584961 258.991272,2199.165771 258.977814,2188.838135 
	C258.916107,2141.538574 258.791321,2094.238525 259.008026,2046.939941 
	C259.130920,2020.116333 236.358521,2001.288818 213.195877,2001.604980 
	C166.238251,2002.245850 119.259827,2002.234741 72.302017,2001.600586 
	C50.579460,2001.307251 26.572916,2018.506226 26.539238,2047.046875 
	C26.483423,2094.346436 26.359924,2141.646484 26.584288,2188.945068 
	C26.712515,2215.977295 45.606041,2234.781982 72.666359,2234.899170 
	C119.298759,2235.101074 165.932770,2234.897217 212.565857,2234.990967 
	C227.511551,2235.020996 239.802063,2229.685059 250.184418,2216.898926 
M460.999878,2001.789551 
	C425.672363,2001.791138 390.330597,2002.401611 355.022400,2001.576538 
	C332.157379,2001.042236 308.479614,2019.055054 308.509430,2047.368408 
	C308.559296,2094.693848 308.333710,2142.020508 308.596497,2189.344482 
	C308.743683,2215.852295 327.644958,2234.509521 354.106567,2234.917725 
	C367.434570,2235.123291 380.768250,2234.964111 394.099365,2234.963135 
	C428.093719,2234.960693 462.090546,2235.202148 496.081665,2234.868652 
	C521.303345,2234.621094 540.496765,2216.478271 540.754822,2191.749023 
	C541.265991,2142.762695 541.258789,2093.764160 540.763367,2044.777588 
	C540.517944,2020.511475 521.224243,2002.256104 496.993469,2001.838623 
	C485.665283,2001.643311 474.331146,2001.795166 460.999878,2001.789551 
M590.516113,2170.943848 
	C590.517883,2176.943115 590.437378,2182.943848 590.535583,2188.941406 
	C590.978577,2215.992676 609.608948,2234.784424 636.704346,2234.899902 
	C683.363342,2235.098877 730.024475,2235.097656 776.683472,2234.903076 
	C804.022827,2234.789062 822.752075,2216.293945 822.885071,2189.148926 
	C823.116882,2141.823486 822.757202,2094.495361 823.022461,2047.170166 
	C823.174194,2020.088013 800.323303,2001.317383 777.385193,2001.614258 
	C730.399902,2002.222290 683.401184,2001.758423 636.408203,2001.858765 
	C632.125916,2001.867920 627.696716,2002.218384 623.589355,2003.339600 
	C603.325562,2008.870605 590.642944,2025.932739 590.562622,2047.979126 
	C590.415710,2088.305908 590.517822,2128.634033 590.516113,2170.943848 
M1050.924561,2234.963867 
	C1052.924316,2234.962646 1054.930786,2234.854004 1056.922974,2234.976562 
	C1084.414795,2236.667969 1105.675537,2214.528564 1105.180054,2186.905029 
	C1104.355103,2140.926514 1104.462036,2094.915039 1105.135010,2048.931396 
	C1105.549072,2020.636963 1082.589722,2001.093628 1058.141846,2001.546021 
	C1011.830994,2002.403076 965.483215,2002.355591 919.170166,2001.557983 
	C895.838013,2001.156372 872.281311,2019.526611 872.447754,2048.221680 
	C872.718506,2094.880127 872.450256,2141.541504 872.616577,2188.201172 
	C872.635315,2193.460449 873.319580,2198.918457 874.842957,2203.935791 
	C880.608276,2222.923096 897.621582,2234.849854 918.964294,2234.916504 
	C962.291077,2235.051758 1005.618591,2234.961670 1050.924561,2234.963867 
M1154.521484,2047.808594 
	C1154.521240,2094.755859 1154.381470,2141.703857 1154.574829,2188.650391 
	C1154.684814,2215.369873 1173.206177,2234.677002 1199.343628,2234.856689 
	C1246.954712,2235.183838 1294.571045,2235.184814 1342.182129,2234.855713 
	C1368.104614,2234.676758 1386.717773,2215.801025 1386.868774,2189.718506 
	C1387.144287,2142.106934 1386.799561,2094.491699 1387.004028,2046.879395 
	C1387.119019,2020.125977 1364.372314,2001.284302 1341.164429,2001.603638 
	C1294.225952,2002.249634 1247.272339,2001.757812 1200.325195,2001.859985 
	C1196.048340,2001.869263 1191.625244,2002.237793 1187.522461,2003.361084 
	C1168.062744,2008.688599 1156.494751,2023.833740 1154.521484,2047.808594 
M1455.308228,2010.030273 
	C1442.318726,2019.713379 1436.468872,2032.786011 1436.494141,2048.847412 
	C1436.567017,2095.146973 1436.421387,2141.446533 1436.555420,2187.745850 
	C1436.637451,2216.096924 1455.246582,2234.827637 1483.464355,2234.917725 
	C1529.763306,2235.065430 1576.063599,2235.083984 1622.362427,2234.910400 
	C1650.218384,2234.805908 1668.795288,2216.299072 1668.902222,2188.513428 
	C1669.083008,2141.548584 1668.673584,2094.580322 1669.056396,2047.617676 
	C1669.278076,2020.414062 1646.532349,2001.228271 1622.874268,2001.587036 
	C1576.252441,2002.294067 1529.612183,2001.869019 1482.979980,2001.733643 
	C1473.347656,2001.705688 1464.524902,2003.789673 1455.308228,2010.030273 
M1950.958984,2159.000488 
	C1950.955078,2121.673340 1950.765137,2084.344971 1951.009766,2047.019531 
	C1951.186035,2020.113647 1928.350952,2001.294678 1905.235718,2001.606812 
	C1858.252075,2002.240967 1811.247925,2002.230591 1764.264160,2001.602417 
	C1742.577637,2001.312500 1718.555542,2018.516235 1718.533936,2047.124268 
	C1718.497925,2094.782959 1718.275879,2142.443604 1718.624634,2190.099854 
	C1718.813721,2215.939209 1737.916870,2234.730225 1763.862427,2234.876221 
	C1811.186401,2235.142578 1858.514404,2235.161377 1905.838013,2234.868164 
	C1931.898926,2234.706787 1950.354858,2215.993896 1950.912842,2189.994629 
	C1951.120117,2180.333984 1950.954590,2170.665283 1950.958984,2159.000488 
M2164.996582,2234.963867 
	C2171.995361,2234.962158 2178.994873,2235.019287 2185.993164,2234.947998 
	C2214.437012,2234.658447 2232.829590,2216.356934 2232.915527,2187.841553 
	C2233.055176,2141.516113 2232.469971,2095.183105 2233.132568,2048.866943 
	C2233.535156,2020.720459 2210.671875,2001.084106 2186.079346,2001.544067 
	C2139.769775,2002.410278 2093.422852,2002.348755 2047.110718,2001.560913 
	C2023.866089,2001.165527 2000.269897,2019.502197 2000.444580,2048.279541 
	C2000.727783,2094.936768 2000.449463,2141.597412 2000.617310,2188.255859 
	C2000.636353,2193.513672 2001.336060,2198.969727 2002.863770,2203.985596 
	C2008.553711,2222.667969 2025.398682,2234.790527 2046.017456,2234.895996 
	C2085.010010,2235.095703 2124.004395,2234.960205 2164.996582,2234.963867 
M234.143890,1724.206421 
	C227.042191,1722.735596 219.950439,1720.049316 212.837158,1719.991089 
	C166.176987,1719.608521 119.504005,1720.309814 72.852432,1719.570435 
	C50.247379,1719.212280 26.441126,1736.992065 26.496265,1765.541382 
	C26.586390,1812.204590 26.378271,1858.868530 26.571459,1905.531006 
	C26.687832,1933.639526 45.701996,1952.349609 73.980072,1952.423584 
	C119.976433,1952.543945 165.973343,1952.470947 211.969971,1952.424683 
	C215.287491,1952.421387 218.663574,1952.287720 221.912308,1951.679810 
	C244.093460,1947.528198 258.799286,1929.686768 258.896027,1906.146851 
	C259.085114,1860.150879 258.754059,1814.152466 259.054565,1768.157715 
	C259.178986,1749.115234 251.963043,1734.637573 234.143890,1724.206421 
M26.514509,448.999725 
	C26.518877,464.989746 26.279596,480.984375 26.582678,496.968750 
	C27.081705,523.287048 46.062965,542.258606 72.379669,542.386292 
	C119.349449,542.614136 166.321991,542.622437 213.291672,542.383362 
	C239.589020,542.249512 258.707703,523.220154 258.866913,496.863861 
	C259.152649,449.561584 258.790344,402.255585 259.010651,354.952576 
	C259.135681,328.108582 236.352356,309.288300 213.204407,309.603790 
	C166.242249,310.243774 119.265152,309.756287 72.294479,309.858765 
	C68.015556,309.868103 63.589500,310.239441 59.486027,311.367554 
	C39.583435,316.838959 26.740824,333.736542 26.580702,355.057098 
	C26.350546,385.703064 26.517227,416.352020 26.514509,448.999725 
M26.514509,1024.999268 
	C26.518900,1036.991699 26.313206,1048.988647 26.570681,1060.975586 
	C27.135946,1087.292114 46.065868,1106.259033 72.386444,1106.386475 
	C119.356239,1106.613770 166.328827,1106.623047 213.298492,1106.383179 
	C239.591934,1106.249023 258.708344,1087.214233 258.867157,1060.856934 
	C259.152130,1013.554626 258.791351,966.248657 259.010223,918.945679 
	C259.134399,892.109985 236.353821,873.287292 213.197433,873.603455 
	C166.235275,874.244690 119.258133,873.756226 72.287445,873.858887 
	C68.008636,873.868225 63.582195,874.239929 59.479336,875.369629 
	C39.245117,880.940552 26.652365,897.989502 26.557884,920.063293 
	C26.411020,954.374756 26.516180,988.687317 26.514509,1024.999268 
M202.917145,1670.462524 
	C205.915222,1670.460327 208.913544,1670.482666 211.911331,1670.452148 
	C240.023804,1670.167114 258.812561,1651.501587 258.910553,1623.244629 
	C259.071167,1576.939209 258.560333,1530.628296 259.101440,1484.328735 
	C259.426666,1456.500122 236.527817,1437.171509 212.577179,1437.567505 
	C165.950882,1438.338623 119.295265,1438.288574 72.667000,1437.579102 
	C50.280647,1437.238525 26.410280,1454.969482 26.486689,1483.688843 
	C26.610769,1530.327515 26.432194,1576.967163 26.633621,1623.605347 
	C26.657669,1629.173096 27.517035,1634.977417 29.257315,1640.254028 
	C35.383972,1658.829712 52.193134,1670.350220 73.016335,1670.414795 
	C115.657356,1670.546875 158.299057,1670.459473 202.917145,1670.462524 
M255.260742,1361.500610 
	C256.492126,1354.670776 258.743103,1347.847900 258.790192,1341.010010 
	C259.106750,1295.017822 258.435211,1249.014404 259.150696,1203.031128 
	C259.580566,1175.405640 237.345169,1154.937866 211.241486,1155.511719 
	C165.602509,1156.514893 119.910332,1156.498047 74.270523,1155.513794 
	C48.755245,1154.963501 26.057846,1174.764526 26.378960,1203.123291 
	C26.895926,1248.778442 26.442966,1294.443848 26.543152,1340.104736 
	C26.607922,1369.624390 45.237503,1388.370972 74.549438,1388.432617 
	C119.876984,1388.527954 165.205261,1388.347046 210.532425,1388.510620 
	C230.370117,1388.582153 245.197876,1380.570557 255.260742,1361.500610 
M49.127182,818.408020 
	C56.867573,822.775024 65.177498,824.520935 74.059387,824.501953 
	C119.724113,824.404236 165.389328,824.527649 211.054062,824.432617 
	C240.001236,824.372375 258.820068,805.817871 258.913971,777.060425 
	C259.065247,730.729309 258.594910,684.393555 259.089264,638.067261 
	C259.381012,610.726624 236.757874,591.121704 212.274521,591.555542 
	C165.957489,592.376221 119.605400,592.368652 73.288223,591.551758 
	C49.757778,591.136719 26.298540,609.603333 26.452036,638.109192 
	C26.701509,684.439453 26.551855,730.772034 26.500729,777.103577 
	C26.481623,794.417664 33.215240,808.076050 49.127182,818.408020 
M133.000061,27.788242 
	C113.002106,27.789864 93.003677,27.719383 73.006569,27.850464 
	C68.712257,27.878613 64.279381,28.082184 60.155163,29.150280 
	C39.527664,34.492424 26.612661,51.830589 26.554607,74.382553 
	C26.436209,120.377556 26.885647,166.377090 26.383762,212.366928 
	C26.066048,241.480698 49.046482,260.625610 74.114006,260.203156 
	C119.763046,259.433868 165.445648,259.374420 211.091980,260.220032 
	C237.278351,260.705109 259.529297,240.530472 259.133453,212.758469 
	C258.477997,166.772507 258.481720,120.763718 259.130676,74.777573 
	C259.524963,46.835625 236.796387,26.662827 211.984406,27.581409 
	C186.355545,28.530235 160.664139,27.789721 133.000061,27.788242 
z"/>
<path fill="#010202" opacity="1.000000" stroke="none" 
	d="
M965.999756,1106.467163 
	C949.667175,1106.464111 934.333313,1106.586914 919.002319,1106.429932 
	C892.000366,1106.153687 872.762268,1087.446045 872.599792,1060.559326 
	C872.313721,1013.230042 872.289917,965.896301 872.612732,918.567505 
	C872.788818,892.755249 892.061768,873.921082 917.820251,873.836609 
	C965.150757,873.681396 1012.486572,874.175598 1059.811157,873.626404 
	C1082.280396,873.365662 1105.246460,891.260071 1105.380127,918.295715 
	C1105.615601,965.958862 1105.735840,1013.626526 1105.329224,1061.287354 
	C1105.108398,1087.180054 1085.207886,1106.209961 1058.995117,1106.404541 
	C1028.331421,1106.632324 997.665039,1106.463745 965.999756,1106.467163 
z"/>
<path fill="#010202" opacity="1.000000" stroke="none" 
	d="
M2006.981201,895.388916 
	C2017.004028,880.246460 2030.452026,873.601990 2047.912231,873.700562 
	C2093.882080,873.960022 2139.867676,874.455444 2185.820312,873.531433 
	C2212.104004,873.002808 2233.939941,893.725037 2233.608154,921.265442 
	C2233.058105,966.896851 2233.545410,1012.540039 2233.427979,1058.177734 
	C2233.353516,1087.236328 2214.187500,1106.372559 2185.150635,1106.435913 
	C2139.512695,1106.535522 2093.874268,1106.541626 2048.236328,1106.432251 
	C2019.467041,1106.363281 2000.640625,1087.615234 2000.551880,1058.838135 
	C2000.410156,1012.867310 2000.554810,966.895752 2000.479248,920.924622 
	C2000.464600,912.065552 2002.253540,903.755371 2006.981201,895.388916 
z"/>
<path fill="#010202" opacity="1.000000" stroke="none" 
	d="
M1200.457397,1106.455566 
	C1171.826416,1104.528198 1154.650513,1086.678101 1154.557373,1059.151489 
	C1154.400635,1012.869385 1154.725464,966.585205 1154.438354,920.304382 
	C1154.259277,891.432251 1177.928467,873.177246 1201.009155,873.559631 
	C1247.612061,874.331604 1294.244751,874.315674 1340.848633,873.576111 
	C1365.317383,873.187866 1387.715210,892.769897 1387.538086,920.257202 
	C1387.239868,966.537842 1387.587769,1012.822266 1387.408447,1059.104126 
	C1387.299194,1087.302612 1367.793457,1106.372070 1339.246460,1106.435059 
	C1293.296875,1106.536377 1247.347168,1106.460571 1200.457397,1106.455566 
z"/>
<path fill="#010202" opacity="1.000000" stroke="none" 
	d="
M1652.400879,883.433350 
	C1664.154419,893.275818 1669.442383,905.379272 1669.448242,919.865601 
	C1669.467285,966.504883 1669.623657,1013.145020 1669.390503,1059.783081 
	C1669.254761,1086.946899 1649.733276,1106.304688 1622.539917,1106.409302 
	C1575.901367,1106.588867 1529.260864,1106.607056 1482.622559,1106.398071 
	C1455.825562,1106.277954 1436.728882,1087.181274 1436.585815,1060.218994 
	C1436.336548,1013.247925 1436.343872,966.273560 1436.585693,919.302429 
	C1436.721924,892.834839 1455.772583,873.913940 1482.046387,873.832642 
	C1529.018311,873.687256 1575.991333,873.872742 1622.963257,873.729553 
	C1633.705078,873.696838 1643.345703,876.346802 1652.400879,883.433350 
z"/>
<path fill="#010202" opacity="1.000000" stroke="none" 
	d="
M1923.889160,1102.629150 
	C1916.318359,1104.090942 1909.493408,1106.258423 1902.654175,1106.304688 
	C1857.355835,1106.611450 1812.054443,1106.526245 1766.754150,1106.440063 
	C1737.316406,1106.384155 1718.617188,1087.774780 1718.543823,1058.364258 
	C1718.429321,1012.397949 1718.435669,966.431030 1718.549072,920.464661 
	C1718.604736,897.878052 1731.428589,880.602356 1752.032349,875.172485 
	C1755.836304,874.170044 1759.918213,873.855713 1763.873047,873.848450 
	C1811.171875,873.761536 1858.475464,874.186340 1905.767700,873.623840 
	C1928.685425,873.351257 1951.463989,891.867493 1951.455811,919.203186 
	C1951.441650,966.169006 1951.571045,1013.135315 1951.397583,1060.100464 
	C1951.325562,1079.601318 1941.997314,1093.619263 1923.889160,1102.629150 
z"/>
<path fill="#010202" opacity="1.000000" stroke="none" 
	d="
M518.034912,1382.581787 
	C509.857697,1386.989502 501.830658,1388.520386 493.320435,1388.503906 
	C447.683685,1388.415283 402.046478,1388.535522 356.409760,1388.435303 
	C327.543701,1388.371948 308.651184,1369.720337 308.555786,1341.013306 
	C308.401947,1294.710571 308.693970,1248.406128 308.450104,1202.104248 
	C308.299591,1173.529419 331.816864,1155.140137 355.242584,1155.550049 
	C401.531555,1156.360352 447.856659,1156.417969 494.143219,1155.540771 
	C519.684204,1155.056641 541.998047,1175.321899 541.621216,1203.586426 
	C541.017273,1248.882202 541.324097,1294.192505 541.526306,1339.495483 
	C541.609070,1358.037598 534.519897,1372.371582 518.034912,1382.581787 
z"/>
<path fill="#010202" opacity="1.000000" stroke="none" 
	d="
M596.981201,1177.389160 
	C607.003784,1162.246338 620.451782,1155.602173 637.911987,1155.700684 
	C683.881714,1155.960205 729.867371,1156.455566 775.819946,1155.531372 
	C802.104553,1155.002808 823.940247,1175.725708 823.608337,1203.265137 
	C823.058350,1248.896484 823.545471,1294.539795 823.428223,1340.177490 
	C823.353577,1369.236450 804.187805,1388.372681 775.150818,1388.436035 
	C729.513000,1388.535645 683.874512,1388.541870 638.236694,1388.432373 
	C609.466492,1388.363281 590.640625,1369.615601 590.551941,1340.838379 
	C590.410278,1294.867676 590.554932,1248.895874 590.479309,1202.924805 
	C590.464722,1194.065796 592.253357,1185.755493 596.981201,1177.389160 
z"/>
<path fill="#010202" opacity="1.000000" stroke="none" 
	d="
M878.964966,1366.588379 
	C874.033569,1357.899658 872.453247,1349.210938 872.471619,1340.024170 
	C872.562927,1294.386597 872.888062,1248.744385 872.377136,1203.112305 
	C872.058960,1174.693726 894.814209,1154.965088 920.237610,1155.511475 
	C965.854431,1156.491699 1011.524475,1156.541016 1057.138916,1155.507202 
	C1084.732910,1154.881714 1106.010498,1176.383545 1105.632690,1203.584839 
	C1104.998779,1249.213867 1105.558105,1294.858398 1105.422729,1340.495850 
	C1105.338013,1369.010010 1086.146851,1388.339966 1057.832153,1388.424194 
	C1011.861633,1388.560791 965.890198,1388.400513 919.919434,1388.491699 
	C902.574829,1388.526245 888.998962,1381.719116 878.964966,1366.588379 
z"/>
<path fill="#010202" opacity="1.000000" stroke="none" 
	d="
M1333.853760,1388.467041 
	C1289.876099,1388.466431 1246.862061,1387.784912 1203.882568,1388.713379 
	C1176.963135,1389.294800 1153.835693,1369.772827 1154.322144,1339.429443 
	C1155.053955,1293.775024 1154.433960,1248.099976 1154.549683,1202.434204 
	C1154.606934,1179.851685 1167.482300,1162.548218 1188.102661,1157.149902 
	C1191.911011,1156.152832 1195.996704,1155.854370 1199.955444,1155.847290 
	C1247.288086,1155.762329 1294.621338,1155.672852 1341.953491,1155.841919 
	C1367.821045,1155.934326 1387.117310,1174.571899 1387.333252,1200.439453 
	C1387.731079,1248.102173 1387.746094,1295.773315 1387.322632,1343.435547 
	C1387.096436,1368.894165 1367.392334,1387.783936 1341.831421,1388.445312 
	C1339.499634,1388.505615 1337.165039,1388.462158 1333.853760,1388.467041 
z"/>
<path fill="#010202" opacity="1.000000" stroke="none" 
	d="
M1623.596924,1155.792969 
	C1645.101318,1154.463501 1669.591553,1172.521118 1669.495850,1201.948242 
	C1669.344238,1248.563599 1669.624268,1295.180542 1669.390137,1341.795166 
	C1669.253784,1368.940796 1649.734253,1388.302856 1622.565063,1388.408691 
	C1575.950073,1388.590210 1529.333130,1388.601562 1482.718262,1388.401001 
	C1455.881348,1388.285645 1436.742188,1369.266968 1436.591064,1342.351440 
	C1436.327637,1295.404175 1436.574829,1248.454224 1436.495972,1201.505615 
	C1436.447998,1172.940674 1460.280151,1155.215698 1482.808716,1155.569458 
	C1529.413086,1156.301514 1576.036987,1155.790405 1623.596924,1155.792969 
z"/>
<path fill="#010202" opacity="1.000000" stroke="none" 
	d="
M1899.794922,1388.466553 
	C1854.210083,1388.463867 1809.594482,1388.549805 1764.979614,1388.418335 
	C1744.183594,1388.357178 1727.378052,1376.823853 1721.254150,1358.257324 
	C1719.514771,1352.983765 1718.654175,1347.182861 1718.630127,1341.618408 
	C1718.428711,1295.006226 1718.622070,1248.392578 1718.477661,1201.780029 
	C1718.388306,1172.947388 1742.295898,1155.258423 1764.529663,1155.582642 
	C1811.465576,1156.267090 1858.424805,1156.245605 1905.361938,1155.601562 
	C1928.940186,1155.277954 1951.599731,1174.269287 1951.500244,1201.766479 
	C1951.336304,1247.046997 1950.673584,1292.347046 1951.729126,1337.603638 
	C1952.476440,1369.643311 1928.170288,1390.777588 1899.794922,1388.466553 
z"/>
<path fill="#010202" opacity="1.000000" stroke="none" 
	d="
M2066.008301,1155.785156 
	C2106.337891,1155.786011 2145.692627,1156.607910 2184.993408,1155.507568 
	C2212.554443,1154.735840 2234.180176,1176.237183 2233.675537,1204.487427 
	C2232.871826,1249.471191 2233.522217,1294.479736 2233.438477,1339.477661 
	C2233.383057,1369.320801 2214.453857,1388.383667 2184.806152,1388.440552 
	C2139.475098,1388.527588 2094.143311,1388.524658 2048.812012,1388.440674 
	C2019.316406,1388.385986 2000.616821,1369.804688 2000.544189,1340.369629 
	C2000.429932,1294.038696 2000.346802,1247.706299 2000.583130,1201.376221 
	C2000.718506,1174.853516 2019.726807,1156.091431 2046.011475,1155.801880 
	C2052.343750,1155.732178 2058.677490,1155.787354 2066.008301,1155.785156 
z"/>
<path fill="#010202" opacity="1.000000" stroke="none" 
	d="
M541.463196,1492.263672 
	C541.461182,1536.512939 541.563477,1579.797241 541.415833,1623.080688 
	C541.334351,1646.978516 526.658020,1665.165161 504.202637,1669.587402 
	C500.644348,1670.288208 496.929138,1670.422852 493.286041,1670.427124 
	C447.671509,1670.480713 402.056702,1670.534180 356.442322,1670.435791 
	C327.572540,1670.373535 308.655884,1651.746094 308.557312,1623.083008 
	C308.398193,1576.802979 308.715607,1530.520996 308.442200,1484.242188 
	C308.272095,1455.454346 331.901306,1437.161987 355.068420,1437.557617 
	C401.002563,1438.342163 446.977936,1438.572144 492.900330,1437.496582 
	C520.874084,1436.841309 543.077942,1458.585571 541.473022,1486.304688 
	C541.376953,1487.963867 541.462219,1489.633423 541.463196,1492.263672 
z"/>
<path fill="#010202" opacity="1.000000" stroke="none" 
	d="
M590.510986,1605.952026 
	C590.512695,1564.628784 590.410522,1524.296143 590.557556,1483.964478 
	C590.637878,1461.925415 603.340454,1444.845215 623.601501,1439.325562 
	C627.710144,1438.206421 632.140564,1437.862793 636.424072,1437.853638 
	C683.422546,1437.754272 730.427185,1438.231445 777.417480,1437.605713 
	C800.687256,1437.295776 823.403320,1455.851929 823.434448,1482.903687 
	C823.489014,1530.235718 823.700806,1577.569458 823.348206,1624.898926 
	C823.154419,1650.908325 803.461914,1670.247437 777.382263,1670.384888 
	C730.384888,1670.632690 683.384521,1670.618164 636.386963,1670.391113 
	C610.047668,1670.264038 591.190308,1651.286499 590.544800,1624.942383 
	C590.397827,1618.945923 590.515259,1612.942993 590.510986,1605.952026 
z"/>
<path fill="#010202" opacity="1.000000" stroke="none" 
	d="
M1059.596924,1437.792969 
	C1081.100708,1436.463501 1105.591553,1454.520630 1105.495728,1483.948364 
	C1105.344116,1530.563721 1105.624390,1577.180664 1105.390259,1623.795288 
	C1105.253906,1650.940918 1085.734375,1670.302734 1058.565063,1670.408569 
	C1011.949951,1670.590088 965.333069,1670.601685 918.718079,1670.401123 
	C891.881409,1670.285645 872.742004,1651.266724 872.590942,1624.351318 
	C872.327454,1577.404053 872.574768,1530.453979 872.495972,1483.505371 
	C872.447998,1454.940552 896.280334,1437.215576 918.809021,1437.569458 
	C965.413269,1438.301514 1012.037048,1437.790283 1059.596924,1437.792969 
z"/>
<path fill="#010202" opacity="1.000000" stroke="none" 
	d="
M1387.463379,1498.101074 
	C1387.461182,1540.416748 1387.565918,1581.749512 1387.416138,1623.081299 
	C1387.329590,1646.945190 1372.457642,1665.357056 1350.123413,1669.627930 
	C1346.555542,1670.310181 1342.837158,1670.424927 1339.187988,1670.428955 
	C1293.522461,1670.479736 1247.856689,1670.543579 1202.191528,1670.431641 
	C1173.433960,1670.361206 1154.635498,1651.578613 1154.550293,1622.747437 
	C1154.414185,1576.748901 1154.815674,1530.747192 1154.404663,1484.751953 
	C1154.147827,1456.015015 1177.443359,1437.067017 1201.642456,1437.532349 
	C1247.624390,1438.416870 1293.649536,1438.477173 1339.628662,1437.525146 
	C1366.292725,1436.973022 1388.534790,1457.906128 1387.480103,1485.118896 
	C1387.325317,1489.112671 1387.461670,1493.117798 1387.463379,1498.101074 
z"/>
<path fill="#010202" opacity="1.000000" stroke="none" 
	d="
M1669.463135,1508.012939 
	C1669.460327,1547.342163 1669.619019,1585.674805 1669.394165,1624.005127 
	C1669.257935,1647.220581 1654.361450,1665.224365 1632.206421,1669.586060 
	C1628.644165,1670.287476 1624.924927,1670.422607 1621.277954,1670.426880 
	C1575.613281,1670.480469 1529.948364,1670.540161 1484.284058,1670.433105 
	C1455.465698,1670.365601 1436.641113,1651.642090 1436.552124,1622.841309 
	C1436.409912,1576.843750 1436.830566,1530.842529 1436.399658,1484.848511 
	C1436.129028,1455.949707 1459.518311,1437.085205 1483.544556,1437.535767 
	C1529.859619,1438.404175 1576.212158,1438.354858 1622.529907,1437.563354 
	C1647.501831,1437.136597 1669.951050,1456.937012 1669.476562,1484.016724 
	C1669.342285,1491.680664 1669.460693,1499.349121 1669.463135,1508.012939 
z"/>
<path fill="#010202" opacity="1.000000" stroke="none" 
	d="
M1774.097656,1670.467163 
	C1770.448730,1670.464233 1767.781738,1670.489380 1765.115479,1670.453857 
	C1737.667358,1670.087036 1718.865723,1651.278687 1718.544434,1623.669922 
	C1718.377686,1609.338623 1718.510742,1595.003906 1718.511108,1580.670654 
	C1718.512085,1548.337524 1718.384521,1516.003784 1718.562012,1483.671631 
	C1718.682129,1461.769653 1731.611328,1444.635376 1751.877686,1439.222900 
	C1755.680664,1438.207153 1759.763672,1437.858521 1763.718628,1437.850952 
	C1811.051392,1437.760620 1858.389282,1438.193604 1905.715332,1437.621094 
	C1928.697876,1437.343018 1951.465210,1455.887695 1951.456177,1483.202637 
	C1951.440552,1530.202271 1951.655151,1577.203125 1951.375977,1624.201050 
	C1951.215332,1651.240601 1931.493774,1670.324585 1904.079102,1670.420898 
	C1861.079834,1670.571899 1818.079834,1670.464966 1774.097656,1670.467163 
z"/>
<path fill="#010202" opacity="1.000000" stroke="none" 
	d="
M2233.463135,1556.000244 
	C2233.461914,1578.665894 2233.542236,1600.331787 2233.439697,1621.996948 
	C2233.301758,1651.157227 2214.270264,1670.366455 2185.287109,1670.433960 
	C2139.622803,1670.540283 2093.958008,1670.539673 2048.293701,1670.433228 
	C2019.468506,1670.366089 2000.641724,1651.649902 2000.552368,1622.851685 
	C2000.409424,1576.854370 2000.832275,1530.853271 2000.399170,1484.859619 
	C2000.126709,1455.944946 2023.523438,1437.087036 2047.532959,1437.536133 
	C2093.847900,1438.402588 2140.200439,1438.365479 2186.517578,1437.558960 
	C2211.488525,1437.124146 2234.121582,1457.047729 2233.555176,1485.005493 
	C2233.082520,1508.328003 2233.461426,1531.667969 2233.463135,1556.000244 
z"/>
<path fill="#010202" opacity="1.000000" stroke="none" 
	d="
M343.627136,1720.617676 
	C348.448212,1720.194824 352.433594,1719.817871 356.419342,1719.814209 
	C402.044800,1719.772827 447.686646,1720.524780 493.289581,1719.511108 
	C520.520142,1718.905884 542.034546,1740.178101 541.636963,1767.714600 
	C540.983093,1812.997681 541.525146,1858.297119 541.437256,1903.589478 
	C541.379517,1933.329956 522.388062,1952.385986 492.761139,1952.441406 
	C447.468842,1952.526123 402.176147,1952.522949 356.883850,1952.441650 
	C327.348816,1952.388550 308.625946,1933.875122 308.546234,1904.507446 
	C308.422394,1858.882324 308.466431,1813.256470 308.532684,1767.631104 
	C308.567719,1743.511108 319.756287,1728.359009 343.627136,1720.617676 
z"/>
<path fill="#010202" opacity="1.000000" stroke="none" 
	d="
M751.998291,1719.785034 
	C761.664124,1719.790527 770.332581,1719.669922 778.996155,1719.825195 
	C802.852600,1720.252808 821.398254,1737.732422 823.312500,1761.483643 
	C823.446106,1763.141846 823.450928,1764.813599 823.451172,1766.479004 
	C823.457764,1812.810059 823.577148,1859.141724 823.405762,1905.472046 
	C823.317932,1929.213989 808.242065,1947.508545 785.753906,1951.696655 
	C782.182739,1952.361816 778.462952,1952.429077 774.811523,1952.432861 
	C729.480408,1952.479492 684.149109,1952.524536 638.818115,1952.440674 
	C609.317932,1952.386108 590.618042,1933.809082 590.544067,1904.375854 
	C590.428589,1858.378418 590.432556,1812.380127 590.550598,1766.382690 
	C590.608521,1743.829712 603.519470,1726.466431 624.155212,1721.158203 
	C628.595276,1720.016113 633.377930,1719.856323 638.004333,1719.844116 
	C675.668945,1719.743896 713.333923,1719.786133 751.998291,1719.785034 
z"/>
<path fill="#010202" opacity="1.000000" stroke="none" 
	d="
M970.000122,1719.785034 
	C999.998718,1719.786499 1029.022095,1720.531494 1057.988525,1719.567993 
	C1083.863403,1718.707275 1105.977417,1739.495361 1105.617676,1767.479980 
	C1105.030640,1813.136841 1105.557129,1858.807007 1105.423096,1904.471069 
	C1105.339233,1933.014893 1086.154419,1952.340820 1057.812744,1952.424316 
	C1011.815430,1952.559937 965.817139,1952.554321 919.819763,1952.425537 
	C891.632141,1952.346558 872.673645,1933.540283 872.563843,1905.377319 
	C872.383179,1859.046997 872.739990,1812.713989 872.433350,1766.384888 
	C872.241760,1737.448120 895.921509,1718.540527 919.009705,1719.635742 
	C935.638062,1720.424561 952.334167,1719.786621 970.000122,1719.785034 
z"/>
<path fill="#010202" opacity="1.000000" stroke="none" 
	d="
M1387.463379,1873.998535 
	C1387.461304,1884.997437 1387.548096,1894.997803 1387.440430,1904.996094 
	C1387.140503,1932.854248 1367.955933,1952.319092 1340.276001,1952.415771 
	C1293.946045,1952.577515 1247.614868,1952.576904 1201.284912,1952.415039 
	C1173.765259,1952.318848 1154.702881,1933.387329 1154.575073,1905.843506 
	C1154.358643,1859.180664 1154.635132,1812.515869 1154.472534,1765.852539 
	C1154.371704,1736.969971 1178.285767,1719.254150 1200.536499,1719.582031 
	C1247.190063,1720.269775 1293.870850,1720.363892 1340.520630,1719.559082 
	C1365.489014,1719.128296 1387.965576,1739.048462 1387.577026,1767.007324 
	C1387.086304,1802.331421 1387.461670,1837.667847 1387.463379,1873.998535 
z"/>
<path fill="#010202" opacity="1.000000" stroke="none" 
	d="
M1439.667236,1748.270508 
	C1448.631104,1728.565430 1463.365845,1719.604858 1484.275757,1719.714111 
	C1529.908691,1719.952637 1575.560669,1720.537231 1621.171509,1719.507935 
	C1648.685791,1718.886963 1670.014404,1740.336914 1669.633423,1767.611206 
	C1668.995972,1813.236450 1669.558716,1858.877319 1669.422363,1904.511108 
	C1669.337036,1933.014038 1650.138062,1952.340454 1621.822998,1952.424194 
	C1575.856079,1952.560303 1529.888428,1952.550415 1483.921509,1952.427246 
	C1455.699707,1952.351685 1436.683716,1933.611328 1436.567749,1905.528809 
	C1436.375244,1858.896240 1436.420288,1812.261719 1436.644165,1765.629395 
	C1436.670776,1760.084595 1438.441528,1754.548096 1439.667236,1748.270508 
z"/>
<path fill="#010202" opacity="1.000000" stroke="none" 
	d="
M1798.000122,1952.467163 
	C1786.000732,1952.462524 1774.998535,1952.615723 1764.002441,1952.421997 
	C1738.219604,1951.967651 1718.862061,1933.312622 1718.644653,1907.558594 
	C1718.242188,1859.897705 1718.293701,1812.229370 1718.613159,1764.567261 
	C1718.786133,1738.755493 1738.062500,1719.921021 1763.820557,1719.836548 
	C1811.151123,1719.681519 1858.486816,1720.175537 1905.811523,1719.626587 
	C1928.283936,1719.365967 1951.246826,1737.264160 1951.380127,1764.296143 
	C1951.615234,1811.959229 1951.735718,1859.626831 1951.329102,1907.287720 
	C1951.108276,1933.180176 1931.207520,1952.234131 1904.994629,1952.401733 
	C1869.664429,1952.627686 1834.331665,1952.463867 1798.000122,1952.467163 
z"/>
<path fill="#010202" opacity="1.000000" stroke="none" 
	d="
M2233.463135,1796.002930 
	C2233.460205,1833.333862 2233.621826,1869.666382 2233.395020,1905.996704 
	C2233.250000,1929.215576 2218.369629,1947.218140 2196.214844,1951.584106 
	C2192.652832,1952.286255 2188.933838,1952.422729 2185.286865,1952.427002 
	C2139.622314,1952.480591 2093.957520,1952.539551 2048.293213,1952.433228 
	C2019.468384,1952.366089 2000.641846,1933.649536 2000.552368,1904.851074 
	C2000.409546,1858.853760 2000.832031,1812.852539 2000.399170,1766.858765 
	C2000.126831,1737.944580 2023.523804,1719.086914 2047.533936,1719.536011 
	C2093.848877,1720.402710 2140.201416,1720.365479 2186.518799,1719.558960 
	C2211.487061,1719.124268 2234.356689,1739.050049 2233.503418,1767.006348 
	C2233.218750,1776.330566 2233.461426,1785.670776 2233.463135,1796.002930 
z"/>
<path fill="#010202" opacity="1.000000" stroke="none" 
	d="
M368.033997,873.784912 
	C410.359772,873.785828 451.712860,874.592285 493.016052,873.504272 
	C520.515991,872.779846 542.184326,894.200562 541.676086,922.510376 
	C540.868591,967.494324 541.523071,1012.503540 541.438416,1057.501831 
	C541.382263,1087.327637 522.437378,1106.384521 492.781128,1106.440796 
	C447.449524,1106.526611 402.117554,1106.525513 356.785950,1106.440430 
	C327.308441,1106.385132 308.616211,1087.786987 308.543549,1058.342773 
	C308.430023,1012.344727 308.427734,966.345886 308.552063,920.347900 
	C308.614685,897.187744 322.829773,878.666138 344.119873,874.680359 
	C351.555206,873.288208 359.388550,874.022034 368.033997,873.784912 
z"/>
<path fill="#010202" opacity="1.000000" stroke="none" 
	d="
M378.004456,542.467163 
	C370.339203,542.465942 363.672699,542.491760 357.006500,542.458679 
	C327.042358,542.309937 308.591156,523.777954 308.532074,493.564362 
	C308.453247,453.233063 308.511200,412.901459 308.511475,372.570007 
	C308.511536,366.570282 308.393829,360.567535 308.542358,354.571381 
	C309.181763,328.759277 328.058777,309.921356 353.816467,309.836761 
	C401.147095,309.681274 448.483032,310.175964 495.807770,309.626221 
	C518.279785,309.365143 541.245850,327.259369 541.379883,354.292542 
	C541.616211,401.955780 541.735657,449.623566 541.329346,497.284546 
	C541.108521,523.178345 521.209778,542.248779 494.997711,542.400208 
	C456.334106,542.623596 417.668243,542.463806 378.004456,542.467163 
z"/>
<path fill="#010202" opacity="1.000000" stroke="none" 
	d="
M784.743286,541.946899 
	C781.213745,542.220947 778.554504,542.444153 775.895203,542.445374 
	C729.938843,542.466797 683.982178,542.548401 638.026123,542.428955 
	C609.390442,542.354492 590.629883,523.489380 590.548462,494.652344 
	C590.418762,448.696320 590.819641,402.736908 590.403503,356.784302 
	C590.142273,327.939331 613.520569,309.085999 637.540771,309.536041 
	C683.813904,310.403046 730.125305,310.378967 776.399963,309.554718 
	C801.586792,309.106079 823.840027,329.135986 823.575867,356.819977 
	C823.140564,402.439178 823.514587,448.065643 823.438599,493.688873 
	C823.395996,519.270691 810.721069,535.255310 784.743286,541.946899 
z"/>
<path fill="#010202" opacity="1.000000" stroke="none" 
	d="
M872.510986,477.951965 
	C872.512695,436.628693 872.410583,396.296112 872.557556,355.964447 
	C872.637878,333.925415 885.340393,316.845123 905.601624,311.325623 
	C909.710266,310.206360 914.140686,309.862762 918.424194,309.853699 
	C965.422668,309.754181 1012.427246,310.231567 1059.417603,309.605743 
	C1082.682861,309.295868 1105.403076,327.847382 1105.434326,354.903900 
	C1105.489136,402.235779 1105.701050,449.569702 1105.348022,496.899048 
	C1105.154053,522.909363 1085.461914,542.247559 1059.382080,542.385010 
	C1012.384705,542.632751 965.384277,542.618164 918.386719,542.391235 
	C892.047913,542.264099 873.190308,523.286255 872.544678,496.942200 
	C872.397766,490.945831 872.515259,484.942932 872.510986,477.951965 
z"/>
<path fill="#010202" opacity="1.000000" stroke="none" 
	d="
M1222.007568,542.467285 
	C1215.009888,542.465942 1209.010132,542.489258 1203.010620,542.459167 
	C1173.043457,542.309082 1154.592163,523.781006 1154.531982,493.569550 
	C1154.452759,453.905365 1154.511108,414.240875 1154.511353,374.576538 
	C1154.511475,367.910248 1154.382324,361.240692 1154.544678,354.578278 
	C1155.173584,328.764252 1174.054810,309.921692 1199.808594,309.836853 
	C1247.138672,309.680878 1294.474121,310.177155 1341.798218,309.625641 
	C1364.274048,309.363708 1387.243164,327.251831 1387.378906,354.282043 
	C1387.618408,401.944702 1387.736084,449.611877 1387.329224,497.272247 
	C1387.108398,523.149231 1367.181030,542.253052 1340.998169,542.400330 
	C1301.668457,542.621643 1262.336548,542.463867 1222.007568,542.467285 
z"/>
<path fill="#010202" opacity="1.000000" stroke="none" 
	d="
M1436.510986,427.999695 
	C1436.513672,403.000885 1436.334473,379.000275 1436.573486,355.003815 
	C1436.785522,333.694855 1449.640991,316.779175 1469.563477,311.338165 
	C1473.671265,310.216309 1478.100952,309.863495 1482.383667,309.854340 
	C1529.381104,309.753906 1576.385132,310.244385 1623.374023,309.601898 
	C1646.944580,309.279541 1669.616455,328.286621 1669.506470,355.858948 
	C1669.320190,402.522522 1669.629272,449.188354 1669.388062,495.851440 
	C1669.247803,523.004089 1649.682373,542.310974 1622.432007,542.412109 
	C1576.101562,542.584106 1529.769653,542.569153 1483.439087,542.418457 
	C1455.822266,542.328613 1436.851807,523.510132 1436.563232,495.996460 
	C1436.329102,473.666504 1436.512573,451.332123 1436.510986,427.999695 
z"/>
<path fill="#010202" opacity="1.000000" stroke="none" 
	d="
M1951.463257,406.000244 
	C1951.462524,435.665527 1950.819580,464.349121 1951.637939,492.990997 
	C1952.492920,522.914246 1929.030273,543.154358 1902.284302,542.681702 
	C1857.300537,541.886841 1812.292358,542.514465 1767.294678,542.446167 
	C1737.134155,542.400391 1718.594238,523.950562 1718.536499,493.852814 
	C1718.448242,447.855225 1718.413574,401.857056 1718.560791,355.859802 
	C1718.631104,333.871857 1731.439331,316.784882 1751.696533,311.281647 
	C1755.494629,310.249847 1759.575562,309.861816 1763.527344,309.853943 
	C1810.858154,309.759399 1858.194702,310.217987 1905.517944,309.610748 
	C1928.688232,309.313477 1951.396362,327.859741 1951.445435,355.002472 
	C1951.475586,371.668365 1951.458862,388.334320 1951.463257,406.000244 
z"/>
<path fill="#010202" opacity="1.000000" stroke="none" 
	d="
M2074.001465,542.467163 
	C2064.002197,542.462585 2055.000244,542.594727 2046.003540,542.427429 
	C2020.219971,541.947998 2000.862061,523.313721 2000.644531,497.559662 
	C2000.242065,449.898712 2000.293701,402.230408 2000.613037,354.568237 
	C2000.786011,328.755981 2020.061646,309.921204 2045.819458,309.836700 
	C2093.150146,309.681458 2140.485840,310.175690 2187.810547,309.626343 
	C2210.274414,309.365601 2233.246094,327.253265 2233.379883,354.295288 
	C2233.616211,401.958435 2233.735840,449.626099 2233.329346,497.286987 
	C2233.108398,523.179688 2213.208496,542.243042 2186.995361,542.400757 
	C2149.665039,542.625305 2112.332520,542.463745 2074.001465,542.467163 
z"/>
<path fill="#010202" opacity="1.000000" stroke="none" 
	d="
M541.463257,698.000244 
	C541.462524,724.332397 540.826904,749.684448 541.625977,774.991333 
	C542.570679,804.910950 519.032715,825.154602 492.283752,824.681885 
	C447.300018,823.886902 402.291962,824.514465 357.294312,824.446228 
	C327.133789,824.400452 308.594208,805.950623 308.536407,775.852356 
	C308.448059,729.854797 308.413422,683.856689 308.560547,637.859375 
	C308.630890,615.871521 321.439728,598.784607 341.696960,593.281494 
	C345.495026,592.249695 349.576019,591.861877 353.527771,591.854004 
	C400.858582,591.759521 448.195099,592.218079 495.518280,591.610779 
	C518.685608,591.313538 541.400269,609.857056 541.444763,637.002869 
	C541.477600,657.001953 541.458984,677.001099 541.463257,698.000244 
z"/>
<path fill="#010202" opacity="1.000000" stroke="none" 
	d="
M872.510986,652.075867 
	C872.522827,645.756714 872.342773,640.415039 872.579285,635.091919 
	C873.675415,610.421997 892.558350,591.943298 917.299438,591.847839 
	C964.964661,591.663940 1012.631531,591.661621 1060.296631,591.848755 
	C1085.613525,591.948181 1105.036499,610.475220 1105.295776,635.783203 
	C1105.787354,683.777344 1105.766113,731.783142 1105.307129,779.777893 
	C1105.068604,804.732727 1085.407837,824.149292 1060.501221,824.341858 
	C1012.838257,824.710510 965.168823,824.678955 917.505127,824.360107 
	C891.523987,824.186340 872.729492,804.663818 872.578369,778.059570 
	C872.341736,736.394897 872.512634,694.727905 872.510986,652.075867 
z"/>
<path fill="#010202" opacity="1.000000" stroke="none" 
	d="
M1333.886475,591.784912 
	C1340.839722,592.109314 1346.990234,591.632019 1352.755371,592.902832 
	C1373.035278,597.372986 1386.899536,614.862671 1387.382568,636.351929 
	C1387.719604,651.344177 1387.462402,666.349976 1387.462280,681.349731 
	C1387.462036,713.682556 1387.654419,746.017090 1387.385864,778.347717 
	C1387.194580,801.374634 1371.873901,819.617676 1349.863159,823.688416 
	C1346.290039,824.349243 1342.571899,824.428467 1338.920410,824.432251 
	C1293.587769,824.479614 1248.255005,824.522156 1202.922485,824.442078 
	C1173.338135,824.389832 1154.624512,805.888428 1154.545776,776.478027 
	C1154.423462,730.812317 1154.940308,685.140686 1154.359619,639.482056 
	C1153.989014,610.346985 1177.190796,590.985962 1201.914795,591.522705 
	C1245.560303,592.470154 1289.240967,591.786011 1333.886475,591.784912 
z"/>
<path fill="#010202" opacity="1.000000" stroke="none" 
	d="
M1557.999756,824.467163 
	C1533.334229,824.466370 1509.638550,823.712097 1486.011230,824.662537 
	C1458.764160,825.758606 1435.858765,805.579041 1436.326782,775.558533 
	C1437.038208,729.905151 1436.438599,684.232422 1436.547119,638.568237 
	C1436.601074,615.906921 1449.353271,598.655334 1469.973267,593.191833 
	C1473.778320,592.183716 1477.862305,591.856812 1481.818848,591.849426 
	C1529.149780,591.761292 1576.485107,592.175781 1623.809814,591.626404 
	C1646.280029,591.365601 1669.246216,609.259399 1669.380127,636.294373 
	C1669.615967,683.957520 1669.729248,731.625000 1669.330688,779.285950 
	C1669.117432,804.786377 1649.467651,824.001953 1623.995728,824.385498 
	C1602.334839,824.711731 1580.665527,824.462036 1557.999756,824.467163 
z"/>
<path fill="#010202" opacity="1.000000" stroke="none" 
	d="
M1889.977417,591.784912 
	C1896.305298,591.790161 1901.640015,591.712219 1906.971313,591.815125 
	C1930.836914,592.275574 1949.385010,609.710876 1951.310303,633.459473 
	C1951.444824,635.117615 1951.450806,636.789307 1951.451050,638.454712 
	C1951.457886,684.786316 1951.576294,731.118408 1951.406250,777.449402 
	C1951.319214,801.202698 1936.264771,819.490906 1913.775269,823.691467 
	C1910.204590,824.358459 1906.484619,824.428772 1902.833374,824.432556 
	C1857.501709,824.479492 1812.169922,824.524170 1766.838379,824.441040 
	C1737.323730,824.386963 1718.619019,805.822388 1718.544434,776.395386 
	C1718.427734,730.397400 1718.433350,684.398621 1718.550293,638.400574 
	C1718.607666,615.837158 1731.502319,598.480530 1752.139038,593.163452 
	C1756.578491,592.019531 1761.361206,591.854919 1765.987305,591.843933 
	C1806.985596,591.746826 1847.984131,591.786011 1889.977417,591.784912 
z"/>
<path fill="#010202" opacity="1.000000" stroke="none" 
	d="
M2233.460693,640.581909 
	C2233.460205,686.802612 2233.574951,732.087769 2233.408447,777.371948 
	C2233.321045,801.142334 2218.384277,819.369690 2195.917236,823.665710 
	C2192.675537,824.285583 2189.301514,824.424988 2185.988525,824.428406 
	C2140.037842,824.476013 2094.086670,824.544617 2048.136230,824.430725 
	C2019.440063,824.359619 2000.636475,805.557129 2000.550537,776.771790 
	C2000.413208,730.821472 2000.839233,684.867371 2000.396606,638.920898 
	C2000.116577,609.858521 2023.604614,591.104065 2047.395020,591.542053 
	C2093.330322,592.387634 2139.308105,592.523499 2185.236572,591.515442 
	C2213.291992,590.899658 2234.959717,613.094238 2233.460693,640.581909 
z"/>
<path fill="#010202" opacity="1.000000" stroke="none" 
	d="
M590.510986,985.999634 
	C590.512207,963.667358 590.868469,942.327759 590.428101,921.004578 
	C589.826111,891.860229 613.611938,873.108582 637.388489,873.541748 
	C683.704163,874.385559 730.056702,874.382690 776.372925,873.553406 
	C801.601746,873.101685 823.846252,893.157227 823.578674,920.860352 
	C823.134277,966.853821 823.574341,1012.855103 823.414795,1058.852295 
	C823.316406,1087.216797 803.947815,1106.361572 775.431519,1106.431763 
	C729.767334,1106.544312 684.102539,1106.534424 638.438354,1106.435547 
	C609.538696,1106.372925 590.729797,1087.730103 590.545654,1058.996094 
	C590.391785,1034.998169 590.512085,1010.998596 590.510986,985.999634 
z"/>
<path fill="#010202" opacity="1.000000" stroke="none" 
	d="
M615.095825,819.471375 
	C598.115173,809.853821 590.501221,795.674316 590.508667,777.116211 
	C590.527100,730.814209 590.711243,684.510986 590.443726,638.210571 
	C590.277771,609.484558 613.873047,591.158752 637.134338,591.554260 
	C683.755981,592.346863 730.407959,592.285828 777.032593,591.586670 
	C801.082642,591.226013 823.543213,610.396729 823.482422,637.472168 
	C823.377075,684.440125 823.664124,731.409912 823.369934,778.376282 
	C823.203613,804.919373 803.563232,824.277588 776.952576,824.398254 
	C730.318359,824.609802 683.680969,824.651428 637.049255,824.252075 
	C629.942749,824.191223 622.859680,821.383118 615.095825,819.471375 
z"/>
<path fill="#010202" opacity="1.000000" stroke="none" 
	d="
M1718.511230,151.999756 
	C1718.513916,125.014107 1718.339966,99.026855 1718.574219,73.043297 
	C1718.766479,51.729023 1731.592651,34.825760 1751.498047,29.359426 
	C1755.602051,28.232376 1760.028931,27.864874 1764.308350,27.855574 
	C1811.282227,27.753481 1858.263062,28.261936 1905.227661,27.595299 
	C1928.989136,27.258017 1951.580933,46.318645 1951.494873,73.676483 
	C1951.348022,120.316933 1951.613647,166.958923 1951.395020,213.598801 
	C1951.266235,241.092239 1932.189575,259.870789 1904.591553,259.949432 
	C1857.951050,260.082306 1811.309448,260.089874 1764.669067,259.945465 
	C1737.712158,259.862000 1718.856445,241.014526 1718.559814,213.965775 
	C1718.336914,193.646042 1718.512817,173.321930 1718.511230,151.999756 
z"/>
<path fill="#010202" opacity="1.000000" stroke="none" 
	d="
M308.511200,187.991653 
	C308.512848,149.347519 308.411957,111.701065 308.555176,74.055534 
	C308.639130,51.986008 321.248779,34.931686 341.485931,29.363312 
	C345.589294,28.234245 350.016266,27.865108 354.295624,27.855780 
	C401.269684,27.753384 448.250763,28.263330 495.215546,27.594782 
	C518.997925,27.256241 541.579041,46.327370 541.494141,73.664742 
	C541.349304,120.305435 541.612793,166.947632 541.395508,213.587769 
	C541.267395,241.085114 522.194946,259.870239 494.602356,259.949249 
	C447.961578,260.082764 401.319855,260.089417 354.679138,259.945679 
	C327.714630,259.862579 308.958496,241.022491 308.536072,213.975601 
	C308.406036,205.648865 308.512848,197.318451 308.511200,187.991653 
z"/>
<path fill="#010202" opacity="1.000000" stroke="none" 
	d="
M615.246338,255.300110 
	C597.982910,245.454544 590.419006,231.021652 590.471863,212.057755 
	C590.600098,166.111969 590.427002,120.165314 590.553650,74.219505 
	C590.615540,51.779415 603.644531,34.427395 624.239807,29.105551 
	C628.047424,28.121668 632.129578,27.852100 636.086060,27.845242 
	C683.363831,27.763247 730.645935,28.161793 777.917908,27.632626 
	C800.282227,27.382278 823.251038,45.254757 823.381775,72.323166 
	C823.611633,119.932907 823.719910,167.546768 823.336243,215.154526 
	C823.128784,240.897369 803.795593,259.795013 778.077393,259.916626 
	C730.467651,260.141815 682.854736,260.142242 635.246521,259.786987 
	C628.795044,259.738861 622.362854,257.098145 615.246338,255.300110 
z"/>
<path fill="#010202" opacity="1.000000" stroke="none" 
	d="
M880.733765,240.968292 
	C874.763733,232.076569 872.473450,222.902832 872.486938,212.974472 
	C872.549805,166.692383 872.697021,120.409203 872.449219,74.128365 
	C872.295898,45.486557 895.860046,27.148506 919.185181,27.552572 
	C965.453491,28.354090 1011.757812,28.431589 1058.022705,27.537458 
	C1083.852051,27.038269 1105.968018,47.484051 1105.614624,75.431808 
	C1105.037842,121.040741 1105.053101,166.667252 1105.609741,212.276703 
	C1105.949951,240.151245 1084.021851,260.591400 1057.952393,260.186523 
	C1012.014221,259.473114 966.056396,259.856140 920.108093,260.059052 
	C903.975647,260.130280 890.965820,254.430222 880.733765,240.968292 
z"/>
<path fill="#010202" opacity="1.000000" stroke="none" 
	d="
M1232.000122,27.784992 
	C1268.646973,27.786446 1304.313354,28.507015 1339.934570,27.549862 
	C1365.969360,26.850302 1387.960938,47.595848 1387.613159,75.387253 
	C1387.042114,121.021599 1387.056274,166.673172 1387.608521,212.307983 
	C1387.945068,240.115143 1366.052612,260.604126 1339.878906,260.190094 
	C1293.915771,259.463043 1247.924438,259.465363 1201.961426,260.196655 
	C1177.056396,260.592926 1154.249756,241.603729 1154.433228,213.255936 
	C1154.735229,166.616943 1154.390137,119.974083 1154.574463,73.333870 
	C1154.660400,51.584686 1167.888428,34.400768 1188.167725,29.129103 
	C1191.976196,28.139097 1196.055542,27.915691 1200.018433,27.849360 
	C1210.343140,27.676538 1220.672607,27.787331 1232.000122,27.784992 
z"/>
<path fill="#010202" opacity="1.000000" stroke="none" 
	d="
M1669.462891,88.101372 
	C1669.460938,130.396912 1669.421631,171.709106 1669.476685,213.021164 
	C1669.496948,228.301453 1664.035278,240.943100 1651.977173,250.514496 
	C1644.434204,256.501953 1635.808960,259.887817 1626.164673,259.904846 
	C1577.190308,259.991364 1528.212402,260.271393 1479.242310,259.799744 
	C1455.523071,259.571289 1437.193237,239.995544 1436.591309,215.530823 
	C1436.247192,201.546341 1436.512573,187.546738 1436.512207,173.553940 
	C1436.511108,140.237701 1436.382324,106.920731 1436.563965,73.605476 
	C1436.683228,51.741821 1449.652466,34.605984 1469.912109,29.211922 
	C1473.714111,28.199631 1477.795166,27.858076 1481.748779,27.850592 
	C1529.057739,27.761021 1576.371704,28.198868 1623.673584,27.618860 
	C1646.670532,27.336876 1669.442261,45.849464 1669.451294,73.125130 
	C1669.452881,77.789413 1669.458862,82.453690 1669.462891,88.101372 
z"/>
<path fill="#010202" opacity="1.000000" stroke="none" 
	d="
M2232.271484,62.526497 
	C2232.776123,66.655846 2233.403320,69.964767 2233.407959,73.274551 
	C2233.472412,120.266533 2233.608887,167.259399 2233.385010,214.250412 
	C2233.277832,236.763351 2218.950928,254.480240 2197.822266,258.988647 
	C2193.957031,259.813385 2189.887207,259.941284 2185.911621,259.946747 
	C2139.919434,260.009888 2093.918945,259.468231 2047.938232,260.195679 
	C2023.057617,260.589294 2000.237915,241.599991 2000.430298,213.203934 
	C2000.743896,166.880539 2000.427734,120.553200 2000.553589,74.227997 
	C2000.614624,51.765099 2013.662598,34.348930 2034.295410,29.112661 
	C2038.739502,27.984827 2043.522339,27.850336 2048.150146,27.841398 
	C2093.809082,27.753195 2139.468262,27.755743 2185.127197,27.801014 
	C2209.816895,27.825493 2224.183105,38.257957 2232.271484,62.526497 
z"/>
<path fill="#010101" opacity="1.000000" stroke="none" 
	d="
M249.733856,2217.479492 
	C239.802063,2229.685059 227.511551,2235.020996 212.565857,2234.990967 
	C165.932770,2234.897217 119.298759,2235.101074 72.666359,2234.899170 
	C45.606041,2234.781982 26.712515,2215.977295 26.584288,2188.945068 
	C26.359924,2141.646484 26.483423,2094.346436 26.539238,2047.046875 
	C26.572916,2018.506226 50.579460,2001.307251 72.302017,2001.600586 
	C119.259827,2002.234741 166.238251,2002.245850 213.195877,2001.604980 
	C236.358521,2001.288818 259.130920,2020.116333 259.008026,2046.939941 
	C258.791321,2094.238525 258.916107,2141.538574 258.977814,2188.838135 
	C258.991272,2199.165771 256.434082,2208.584961 249.733856,2217.479492 
z"/>
<path fill="#010101" opacity="1.000000" stroke="none" 
	d="
M461.999786,2001.789551 
	C474.331146,2001.795166 485.665283,2001.643311 496.993469,2001.838623 
	C521.224243,2002.256104 540.517944,2020.511475 540.763367,2044.777588 
	C541.258789,2093.764160 541.265991,2142.762695 540.754822,2191.749023 
	C540.496765,2216.478271 521.303345,2234.621094 496.081665,2234.868652 
	C462.090546,2235.202148 428.093719,2234.960693 394.099365,2234.963135 
	C380.768250,2234.964111 367.434570,2235.123291 354.106567,2234.917725 
	C327.644958,2234.509521 308.743683,2215.852295 308.596497,2189.344482 
	C308.333710,2142.020508 308.559296,2094.693848 308.509430,2047.368408 
	C308.479614,2019.055054 332.157379,2001.042236 355.022400,2001.576538 
	C390.330597,2002.401611 425.672363,2001.791138 461.999786,2001.789551 
z"/>
<path fill="#010101" opacity="1.000000" stroke="none" 
	d="
M590.516113,2169.952637 
	C590.517822,2128.634033 590.415710,2088.305908 590.562622,2047.979126 
	C590.642944,2025.932739 603.325562,2008.870605 623.589355,2003.339600 
	C627.696716,2002.218384 632.125916,2001.867920 636.408203,2001.858765 
	C683.401184,2001.758423 730.399902,2002.222290 777.385193,2001.614258 
	C800.323303,2001.317383 823.174194,2020.088013 823.022461,2047.170166 
	C822.757202,2094.495361 823.116882,2141.823486 822.885071,2189.148926 
	C822.752075,2216.293945 804.022827,2234.789062 776.683472,2234.903076 
	C730.024475,2235.097656 683.363342,2235.098877 636.704346,2234.899902 
	C609.608948,2234.784424 590.978577,2215.992676 590.535583,2188.941406 
	C590.437378,2182.943848 590.517883,2176.943115 590.516113,2169.952637 
z"/>
<path fill="#010101" opacity="1.000000" stroke="none" 
	d="
M1049.935181,2234.963867 
	C1005.618591,2234.961670 962.291077,2235.051758 918.964294,2234.916504 
	C897.621582,2234.849854 880.608276,2222.923096 874.842957,2203.935791 
	C873.319580,2198.918457 872.635315,2193.460449 872.616577,2188.201172 
	C872.450256,2141.541504 872.718506,2094.880127 872.447754,2048.221680 
	C872.281311,2019.526611 895.838013,2001.156372 919.170166,2001.557983 
	C965.483215,2002.355591 1011.830994,2002.403076 1058.141846,2001.546021 
	C1082.589722,2001.093628 1105.549072,2020.636963 1105.135010,2048.931396 
	C1104.462036,2094.915039 1104.355103,2140.926514 1105.180054,2186.905029 
	C1105.675537,2214.528564 1084.414795,2236.667969 1056.922974,2234.976562 
	C1054.930786,2234.854004 1052.924316,2234.962646 1049.935181,2234.963867 
z"/>
<path fill="#010101" opacity="1.000000" stroke="none" 
	d="
M1154.524902,2046.900757 
	C1156.494751,2023.833740 1168.062744,2008.688599 1187.522461,2003.361084 
	C1191.625244,2002.237793 1196.048340,2001.869263 1200.325195,2001.859985 
	C1247.272339,2001.757812 1294.225952,2002.249634 1341.164429,2001.603638 
	C1364.372314,2001.284302 1387.119019,2020.125977 1387.004028,2046.879395 
	C1386.799561,2094.491699 1387.144287,2142.106934 1386.868774,2189.718506 
	C1386.717773,2215.801025 1368.104614,2234.676758 1342.182129,2234.855713 
	C1294.571045,2235.184814 1246.954712,2235.183838 1199.343628,2234.856689 
	C1173.206177,2234.677002 1154.684814,2215.369873 1154.574829,2188.650391 
	C1154.381470,2141.703857 1154.521240,2094.755859 1154.524902,2046.900757 
z"/>
<path fill="#010101" opacity="1.000000" stroke="none" 
	d="
M1455.916504,2009.606201 
	C1464.524902,2003.789673 1473.347656,2001.705688 1482.979980,2001.733643 
	C1529.612183,2001.869019 1576.252441,2002.294067 1622.874268,2001.587036 
	C1646.532349,2001.228271 1669.278076,2020.414062 1669.056396,2047.617676 
	C1668.673584,2094.580322 1669.083008,2141.548584 1668.902222,2188.513428 
	C1668.795288,2216.299072 1650.218384,2234.805908 1622.362427,2234.910400 
	C1576.063599,2235.083984 1529.763306,2235.065430 1483.464355,2234.917725 
	C1455.246582,2234.827637 1436.637451,2216.096924 1436.555420,2187.745850 
	C1436.421387,2141.446533 1436.567017,2095.146973 1436.494141,2048.847412 
	C1436.468872,2032.786011 1442.318726,2019.713379 1455.916504,2009.606201 
z"/>
<path fill="#010101" opacity="1.000000" stroke="none" 
	d="
M1950.958984,2160.000488 
	C1950.954590,2170.665283 1951.120117,2180.333984 1950.912842,2189.994629 
	C1950.354858,2215.993896 1931.898926,2234.706787 1905.838013,2234.868164 
	C1858.514404,2235.161377 1811.186401,2235.142578 1763.862427,2234.876221 
	C1737.916870,2234.730225 1718.813721,2215.939209 1718.624634,2190.099854 
	C1718.275879,2142.443604 1718.497925,2094.782959 1718.533936,2047.124268 
	C1718.555542,2018.516235 1742.577637,2001.312500 1764.264160,2001.602417 
	C1811.247925,2002.230591 1858.252075,2002.240967 1905.235718,2001.606812 
	C1928.350952,2001.294678 1951.186035,2020.113647 1951.009766,2047.019531 
	C1950.765137,2084.344971 1950.955078,2121.673340 1950.958984,2160.000488 
z"/>
<path fill="#010101" opacity="1.000000" stroke="none" 
	d="
M2163.997314,2234.963867 
	C2124.004395,2234.960205 2085.010010,2235.095703 2046.017456,2234.895996 
	C2025.398682,2234.790527 2008.553711,2222.667969 2002.863770,2203.985596 
	C2001.336060,2198.969727 2000.636353,2193.513672 2000.617310,2188.255859 
	C2000.449463,2141.597412 2000.727783,2094.936768 2000.444580,2048.279541 
	C2000.269897,2019.502197 2023.866089,2001.165527 2047.110718,2001.560913 
	C2093.422852,2002.348755 2139.769775,2002.410278 2186.079346,2001.544067 
	C2210.671875,2001.084106 2233.535156,2020.720459 2233.132568,2048.866943 
	C2232.469971,2095.183105 2233.055176,2141.516113 2232.915527,2187.841553 
	C2232.829590,2216.356934 2214.437012,2234.658447 2185.993164,2234.947998 
	C2178.994873,2235.019287 2171.995361,2234.962158 2163.997314,2234.963867 
z"/>
<path fill="#010101" opacity="1.000000" stroke="none" 
	d="
M234.828796,1724.551636 
	C251.963043,1734.637573 259.178986,1749.115234 259.054565,1768.157715 
	C258.754059,1814.152466 259.085114,1860.150879 258.896027,1906.146851 
	C258.799286,1929.686768 244.093460,1947.528198 221.912308,1951.679810 
	C218.663574,1952.287720 215.287491,1952.421387 211.969971,1952.424683 
	C165.973343,1952.470947 119.976433,1952.543945 73.980072,1952.423584 
	C45.701996,1952.349609 26.687832,1933.639526 26.571459,1905.531006 
	C26.378271,1858.868530 26.586390,1812.204590 26.496265,1765.541382 
	C26.441126,1736.992065 50.247379,1719.212280 72.852432,1719.570435 
	C119.504005,1720.309814 166.176987,1719.608521 212.837158,1719.991089 
	C219.950439,1720.049316 227.042191,1722.735596 234.828796,1724.551636 
z"/>
<path fill="#010101" opacity="1.000000" stroke="none" 
	d="
M26.514513,447.999695 
	C26.517227,416.352020 26.350546,385.703064 26.580702,355.057098 
	C26.740824,333.736542 39.583435,316.838959 59.486027,311.367554 
	C63.589500,310.239441 68.015556,309.868103 72.294479,309.858765 
	C119.265152,309.756287 166.242249,310.243774 213.204407,309.603790 
	C236.352356,309.288300 259.135681,328.108582 259.010651,354.952576 
	C258.790344,402.255585 259.152649,449.561584 258.866913,496.863861 
	C258.707703,523.220154 239.589020,542.249512 213.291672,542.383362 
	C166.321991,542.622437 119.349449,542.614136 72.379669,542.386292 
	C46.062965,542.258606 27.081705,523.287048 26.582678,496.968750 
	C26.279596,480.984375 26.518877,464.989746 26.514513,447.999695 
z"/>
<path fill="#010101" opacity="1.000000" stroke="none" 
	d="
M26.514513,1023.999329 
	C26.516180,988.687317 26.411020,954.374756 26.557884,920.063293 
	C26.652365,897.989502 39.245117,880.940552 59.479336,875.369629 
	C63.582195,874.239929 68.008636,873.868225 72.287445,873.858887 
	C119.258133,873.756226 166.235275,874.244690 213.197433,873.603455 
	C236.353821,873.287292 259.134399,892.109985 259.010223,918.945679 
	C258.791351,966.248657 259.152130,1013.554626 258.867157,1060.856934 
	C258.708344,1087.214233 239.591934,1106.249023 213.298492,1106.383179 
	C166.328827,1106.623047 119.356239,1106.613770 72.386444,1106.386475 
	C46.065868,1106.259033 27.135946,1087.292114 26.570681,1060.975586 
	C26.313206,1048.988647 26.518900,1036.991699 26.514513,1023.999329 
z"/>
<path fill="#010101" opacity="1.000000" stroke="none" 
	d="
M201.928818,1670.462524 
	C158.299057,1670.459473 115.657356,1670.546875 73.016335,1670.414795 
	C52.193134,1670.350220 35.383972,1658.829712 29.257315,1640.254028 
	C27.517035,1634.977417 26.657669,1629.173096 26.633621,1623.605347 
	C26.432194,1576.967163 26.610769,1530.327515 26.486689,1483.688843 
	C26.410280,1454.969482 50.280647,1437.238525 72.667000,1437.579102 
	C119.295265,1438.288574 165.950882,1438.338623 212.577179,1437.567505 
	C236.527817,1437.171509 259.426666,1456.500122 259.101440,1484.328735 
	C258.560333,1530.628296 259.071167,1576.939209 258.910553,1623.244629 
	C258.812561,1651.501587 240.023804,1670.167114 211.911331,1670.452148 
	C208.913544,1670.482666 205.915222,1670.460327 201.928818,1670.462524 
z"/>
<path fill="#010101" opacity="1.000000" stroke="none" 
	d="
M254.928741,1362.216064 
	C245.197876,1380.570557 230.370117,1388.582153 210.532425,1388.510620 
	C165.205261,1388.347046 119.876984,1388.527954 74.549438,1388.432617 
	C45.237503,1388.370972 26.607922,1369.624390 26.543152,1340.104736 
	C26.442966,1294.443848 26.895926,1248.778442 26.378960,1203.123291 
	C26.057846,1174.764526 48.755245,1154.963501 74.270523,1155.513794 
	C119.910332,1156.498047 165.602509,1156.514893 211.241486,1155.511719 
	C237.345169,1154.937866 259.580566,1175.405640 259.150696,1203.031128 
	C258.435211,1249.014404 259.106750,1295.017822 258.790192,1341.010010 
	C258.743103,1347.847900 256.492126,1354.670776 254.928741,1362.216064 
z"/>
<path fill="#010101" opacity="1.000000" stroke="none" 
	d="
M48.482685,818.019653 
	C33.215240,808.076050 26.481623,794.417664 26.500729,777.103577 
	C26.551855,730.772034 26.701509,684.439453 26.452036,638.109192 
	C26.298540,609.603333 49.757778,591.136719 73.288223,591.551758 
	C119.605400,592.368652 165.957489,592.376221 212.274521,591.555542 
	C236.757874,591.121704 259.381012,610.726624 259.089264,638.067261 
	C258.594910,684.393555 259.065247,730.729309 258.913971,777.060425 
	C258.820068,805.817871 240.001236,824.372375 211.054062,824.432617 
	C165.389328,824.527649 119.724113,824.404236 74.059387,824.501953 
	C65.177498,824.520935 56.867573,822.775024 48.482685,818.019653 
z"/>
<path fill="#010101" opacity="1.000000" stroke="none" 
	d="
M134.000076,27.788242 
	C160.664139,27.789721 186.355545,28.530235 211.984406,27.581409 
	C236.796387,26.662827 259.524963,46.835625 259.130676,74.777573 
	C258.481720,120.763718 258.477997,166.772507 259.133453,212.758469 
	C259.529297,240.530472 237.278351,260.705109 211.091980,260.220032 
	C165.445648,259.374420 119.763046,259.433868 74.114006,260.203156 
	C49.046482,260.625610 26.066048,241.480698 26.383762,212.366928 
	C26.885647,166.377090 26.436209,120.377556 26.554607,74.382553 
	C26.612661,51.830589 39.527664,34.492424 60.155163,29.150280 
	C64.279381,28.082184 68.712257,27.878613 73.006569,27.850464 
	C93.003677,27.719383 113.002106,27.789864 134.000076,27.788242 
z"/>
</svg>