<svg xmlns="http://www.w3.org/2000/svg" xmlns:xlink="http://www.w3.org/1999/xlink" width="197.188" height="119.865" viewBox="0 0 74 119.865" class="mdl-js">
  <defs>
    <clipPath id="clip-path">
      <path id="Path_46" data-name="Path 46" d="M163.172,61.07a7.607,7.607,0,1,0,7.607-7.606,7.609,7.609,0,0,0-7.607,7.606" transform="translate(-163.172 -53.464)" fill="none"/>
    </clipPath>
    <clipPath id="clip-path-2">
      <path id="Path_75" data-name="Path 75" d="M222.919,92.784a5.9,5.9,0,0,1-.131-1.237l.013-.357a5.957,5.957,0,0,1,10.684-3.249l0,.009a5.872,5.872,0,0,1,1.212,3.6,5.956,5.956,0,0,1-11.783,1.237m-57.786-23.57-.151,0c-.354.026-.662.126-1.044.156l-.364.13-.029.013-.014.044v63.173c0,.264.008.524.023.787l.028.367a14.915,14.915,0,0,0,4.6,9.7,16.282,16.282,0,0,0,11.007,4.5v-.128c0-2.761.014-47.025.027-48.768h12.949v47.013a16.349,16.349,0,0,0,16.107,16.083v-63.1h28.188V83.531H179.218a14.528,14.528,0,0,0-11.933-14.153c-.22-.034-.439-.063-.662-.089a14.324,14.324,0,0,0-1.446-.076Z" transform="translate(-163.531 -69.214)" fill="none"/>
    </clipPath>
  </defs>
  <g id="Group_436" data-name="Group 436" transform="translate(0 0)">
    <path id="Path_1" data-name="Path 1" d="M212.729,165.678V114.587A15.587,15.587,0,0,1,228.316,99v51.091a15.586,15.586,0,0,1-15.587,15.586" transform="translate(-154.828 -45.819)" fill="#a6332e"/>
    <path id="Path_2" data-name="Path 2" d="M228.584,97.489a5.958,5.958,0,1,1,5.954-5.959,5.959,5.959,0,0,1-5.954,5.959M179.059,83.512a14.339,14.339,0,0,0-15.4-14.134,1.258,1.258,0,0,0-.515.164v63.172a15.057,15.057,0,0,0,4.773,10.861,16.1,16.1,0,0,0,11.128,4.405s0-47.018.009-48.808h13.127c0,13.87.03,32.081.03,46.924a16.151,16.151,0,0,0,16.121,16.17V99.172h28.189V83.512Z" transform="translate(-163.149 -50.798)" fill="#b03633"/>
    <path id="Path_3" data-name="Path 3" d="M178.388,61.071a7.609,7.609,0,1,0-7.611,7.608,7.609,7.609,0,0,0,7.611-7.608" transform="translate(-163.145 -53.461)" fill="#b03633"/>
    <g id="Group_4" data-name="Group 4" transform="translate(57.9 53.053)">
      <path id="Path_32" data-name="Path 32" d="M228.316,98.89a15.586,15.586,0,0,0-15.587,15.587v.128a15.547,15.547,0,0,1,5.706-12.053,15,15,0,0,1,9.491-3.538c.131,0,.232,0,.3.006h.091V98.89Z" transform="translate(-212.728 -98.89)" fill="#d9ae9e"/>
      <path id="Path_33" data-name="Path 33" d="M228.316,99h-.091l.091,0Zm0,.007-10.152,22.286,10.122,14.071-6.849,13.382,4.856,8.9a15.511,15.511,0,0,0,2.024-7.685Zm-9.881,3.524a15.55,15.55,0,0,0-5.706,12.054V119.6c0-1.417.013-2.826.033-4.162v-1.655l.026.039c.007-.253.012-.5.017-.745,1.035-5.189,3.219-8.47,5.63-10.543m-5.706,19.4v43.619h.033V127.138c-.015-1.581-.028-3.367-.033-5.206" transform="translate(-212.728 -98.871)" fill="#a6332e"/>
      <path id="Path_34" data-name="Path 34" d="M212.756,111.658v1.655c.007-.552.02-1.1.029-1.616Zm5.4,7.511-5.325,11.69s-.043-2.451-.077-5.845v38.413l.077-32.568,8.6,15.763,6.853-13.382Z" transform="translate(-212.724 -96.747)" fill="#95332f"/>
      <path id="Path_35" data-name="Path 35" d="M226.325,149.277a15.663,15.663,0,0,1-5.421,5.649,13.986,13.986,0,0,0,5.443-5.6Zm-13.313,7.962h-.255v.006s.09,0,.256-.007" transform="translate(-212.724 -90.434)" fill="#c09f97"/>
      <path id="Path_36" data-name="Path 36" d="M226.287,149.221a15.589,15.589,0,0,1-13.462,7.9l-.069.126h.255a18.271,18.271,0,0,0,7.891-2.313,15.651,15.651,0,0,0,5.422-5.65Z" transform="translate(-212.723 -90.443)" fill="#983230"/>
      <path id="Path_37" data-name="Path 37" d="M221.421,141.6l-8.607,16.8a15.59,15.59,0,0,0,13.465-7.9Z" transform="translate(-212.714 -91.723)" fill="#983230"/>
      <path id="Path_38" data-name="Path 38" d="M212.833,128.1l-.076,32.568h.069l8.6-16.8Z" transform="translate(-212.723 -93.988)" fill="#8c3230"/>
      <path id="Path_39" data-name="Path 39" d="M228.316,99v0M212.729,119.6c0,.778,0,1.561,0,2.333Z" transform="translate(-212.728 -98.871)" fill="#d2bab5"/>
      <path id="Path_40" data-name="Path 40" d="M227.1,99a15,15,0,0,0-9.487,3.538A15.511,15.511,0,0,1,227.4,99c-.067,0-.168-.006-.3-.006" transform="translate(-211.908 -98.872)" fill="#bd8a7d"/>
      <path id="Path_41" data-name="Path 41" d="M228.225,99a15.511,15.511,0,0,0-9.79,3.533c-2.41,2.073-4.6,5.354-5.63,10.542-.006.245-.01.493-.015.745l5.374,7.473,10.152-22.286v0l-.091,0m-15.464,16.436c-.019,1.334-.027,2.743-.031,4.163v2.333c0,1.838.015,3.624.031,5.2Z" transform="translate(-212.728 -98.871)" fill="#9d312e"/>
      <path id="Path_42" data-name="Path 42" d="M212.783,111.691c-.009.524-.02,1.063-.027,1.616v11.7c.032,3.394.077,5.845.077,5.845l5.325-11.693Z" transform="translate(-212.724 -96.742)" fill="#903231"/>
    </g>
    <g id="Group_6" data-name="Group 6" transform="translate(0.027 0.003)">
      <g id="Group_5" data-name="Group 5" clip-path="url(#clip-path)">
        <path id="Path_43" data-name="Path 43" d="M170.451,53.464a7.575,7.575,0,0,0-5.326,2.178L168.5,61.83l4.122-8.05a7.488,7.488,0,0,0-2.172-.316" transform="translate(-162.844 -53.464)" fill="#9a3333"/>
        <path id="Path_44" data-name="Path 44" d="M168.4,60.628l-2.7,5.263a7.626,7.626,0,0,0,6.164,1.429c.029-.055.062-.112.091-.167Z" transform="translate(-162.746 -52.262)" fill="#9d3433"/>
        <path id="Path_45" data-name="Path 45" d="M165.453,55.329a7.6,7.6,0,0,0,.681,11.452l2.7-5.263Z" transform="translate(-163.172 -53.151)" fill="#903332"/>
      </g>
    </g>
    <g id="Group_8" data-name="Group 8" transform="translate(0.446 18.396)">
      <g id="Group_7" data-name="Group 7" clip-path="url(#clip-path-2)">
        <path id="Path_47" data-name="Path 47" d="M228.748,97.508a5.962,5.962,0,0,1-5.83-4.724,5.878,5.878,0,0,1-.13-1.236l.015-.359a5.955,5.955,0,0,1,10.683-3.249l0,.011a5.874,5.874,0,0,1,1.211,3.6,5.959,5.959,0,0,1-2.671,4.971,5.892,5.892,0,0,1-3.284.988M179.441,83.531a14.607,14.607,0,0,0-12.154-14.153c-.222-.035-.441-.061-.663-.089a13.76,13.76,0,0,0-1.447-.076h-.042l-.153,0c-.3.032-.624.127-.931.156a1.731,1.731,0,0,0-.48.13l-.027.013-.014.043v63.172c0,.266.008.527.023.788l.028.368a15.016,15.016,0,0,0,4.729,9.639,15.807,15.807,0,0,0,10.881,4.432h.014l.234-.023s-.011-46.956,0-48.746h13.172v47.014a16.086,16.086,0,0,0,15.66,16.072l.211,0,.237,0V99.191H236.91V83.531Z" transform="translate(-163.531 -69.214)" fill="#b03633"/>
        <path id="Path_48" data-name="Path 48" d="M197.069,109.206l-8.22,16.053,6.852,13.378,8.323-15.26v-1.015Z" transform="translate(-159.282 -62.503)" fill="#9a3333"/>
        <path id="Path_49" data-name="Path 49" d="M188.44,95.042h-.04l.04.08Z" transform="translate(-159.357 -64.88)" fill="#a53835"/>
        <path id="Path_50" data-name="Path 50" d="M204.027,95.042H188.436v.08l8.7,16.461L204.1,98V95.08Z" transform="translate(-159.351 -64.88)" fill="#a53835"/>
        <path id="Path_51" data-name="Path 51" d="M202.843,97.573l-6.955,13.581,6.955,13.164Z" transform="translate(-158.101 -64.455)" fill="#933534"/>
        <path id="Path_52" data-name="Path 52" d="M195.422,134.407l-4.917,9.016c3.728,7.015,11.505,7.82,13.244,7.913v-.669Z" transform="translate(-159.004 -58.273)" fill="#9d3433"/>
        <path id="Path_53" data-name="Path 53" d="M203.04,121.34,194.715,136.6l8.325,16.253Z" transform="translate(-158.298 -60.466)" fill="#903332"/>
        <path id="Path_54" data-name="Path 54" d="M205.85,81.856H204.3l-14.184,7.5,13.625,7.9h.068V97.07h.662l13.982-6.409a5.882,5.882,0,0,1-.13-1.236l.015-.357a5.956,5.956,0,0,1,10.683-3.248l0,.008,0-.008a5.956,5.956,0,0,0-10.683,3.248Z" transform="translate(-159.069 -67.092)" fill="#9a3333"/>
        <path id="Path_55" data-name="Path 55" d="M201.853,95.042h-.066l.066.038Z" transform="translate(-157.111 -64.88)" fill="#933534"/>
        <path id="Path_56" data-name="Path 56" d="M207.292,81.488l-30.135.333V97.132h.548l14.587-7.714-12.939-7.5h27.127Z" transform="translate(-161.244 -67.154)" fill="#a53835"/>
        <path id="Path_57" data-name="Path 57" d="M206.165,81.856H179.038l12.939,7.5Z" transform="translate(-160.929 -67.092)" fill="#933534"/>
        <path id="Path_58" data-name="Path 58" d="M229.844,81.474H214.112l-11.148.026.285.166.335.193.11.062h26.15Zm0,3.059-2.971,1.361a5.88,5.88,0,0,1,1.212,3.6,5.96,5.96,0,0,1-2.67,4.973l4.428,2.559Z" transform="translate(-156.913 -67.156)" fill="#9d3433"/>
        <path id="Path_59" data-name="Path 59" d="M229.739,81.856h-26.15l12.49,7.212a5.957,5.957,0,0,1,10.684-3.248l0,.008,2.971-1.361Z" transform="translate(-156.808 -67.092)" fill="#903332"/>
        <path id="Path_60" data-name="Path 60" d="M171.1,99.655l-7.238,11.217,7.109,14.7,8.176-14.989c0-.167,0-.341,0-.508Z" transform="translate(-163.475 -64.105)" fill="#9a3333"/>
        <path id="Path_61" data-name="Path 61" d="M177.09,89.171v6.672h.078V89.282Z" transform="translate(-161.255 -65.865)" fill="#933534"/>
        <path id="Path_62" data-name="Path 62" d="M176.922,136.643v.04c-.368,0-.739-.014-1.106-.039.6.081,1.053.109,1.316.121v-.121h-.21" transform="translate(-161.469 -57.898)" fill="#c09f97"/>
        <path id="Path_63" data-name="Path 63" d="M174.5,136.415c.572.124,1.092.21,1.536.267.366.024.732.037,1.106.037v-.041a15.211,15.211,0,0,1-2.642-.264" transform="translate(-161.69 -57.936)" fill="#9d3433"/>
        <path id="Path_64" data-name="Path 64" d="M170.693,121.848l-5.175,9.484a15.213,15.213,0,0,0,10.493,7.524,15,15,0,0,0,2.639.27h.21v-.392Z" transform="translate(-163.198 -60.381)" fill="#9d3433"/>
        <path id="Path_65" data-name="Path 65" d="M178.128,109.01,169.949,124l8.165,16.887c0-3.08.006-19.1.014-31.879" transform="translate(-162.454 -62.535)" fill="#903332"/>
        <path id="Path_66" data-name="Path 66" d="M164.922,69.218c-.35.026-.656.123-1.031.155.068,0,.135-.008.206-.01.274-.037.557-.117.826-.145" transform="translate(-163.471 -69.213)" fill="#bb938a"/>
        <path id="Path_67" data-name="Path 67" d="M164.116,69.341l-.2.012H163.9l-.141.05a1.433,1.433,0,0,1,.253-.05l.1-.013" transform="translate(-163.493 -69.193)" fill="#9a3333"/>
        <path id="Path_68" data-name="Path 68" d="M165.181,69.214h-.048l-.152,0c-.269.028-.55.105-.824.144l-.106.013a1.431,1.431,0,0,0-.253.05l-.227.079-.026.013-.012.043,8.3,12.04,4.257-6.935a14.206,14.206,0,0,0-8.807-5.288c-.218-.035-.439-.061-.662-.089a13.654,13.654,0,0,0-1.442-.076m14.263,14.317h-.078v.35h.078Z" transform="translate(-163.531 -69.214)" fill="#9a3333"/>
        <path id="Path_69" data-name="Path 69" d="M177.168,81.773h-.078v8.165l.078-.119V81.773Z" transform="translate(-161.255 -67.106)" fill="#933534"/>
        <path id="Path_70" data-name="Path 70" d="M177.168,88.661l-.078.12v.475l.078.11Z" transform="translate(-161.255 -65.95)" fill="#893332"/>
        <path id="Path_71" data-name="Path 71" d="M171.824,79.821l-8.221,13.4,7.542,9.767L179.2,90.512Z" transform="translate(-163.519 -67.434)" fill="#9d3433"/>
        <path id="Path_72" data-name="Path 72" d="M178.113,88.974l-8.05,12.472,8.046,10.418c0-8.421.009-15.323.013-15.99h.149V89.2Z" transform="translate(-162.435 -65.898)" fill="#903332"/>
        <path id="Path_73" data-name="Path 73" d="M174.9,73.883l-4.254,6.935,7.374,10.689.159-.245V82.748h-.149a14.372,14.372,0,0,0-3.129-8.865" transform="translate(-162.338 -68.43)" fill="#903332"/>
        <path id="Path_74" data-name="Path 74" d="M177.113,88.764l-.159.246.159.229Z" transform="translate(-161.278 -65.933)" fill="#873232"/>
      </g>
    </g>
  </g>
<div xmlns="" id="divScriptsUsed" style="display: none"/><script xmlns="" id="globalVarsDetection" src="chrome-extension://cmkdbmfndkfgebldhnkbfhlneefdaaip/js/wrs_env.js"/></svg>